<svg width="40" height="34" viewBox="0 0 40 34" fill="none" xmlns="http://www.w3.org/2000/svg">
<path d="M33.9167 0H5.65278C4.15407 0.00163653 2.71721 0.597721 1.65747 1.65747C0.597721 2.71721 0.00163653 4.15407 0 5.65278V28.2639C0.00163653 29.7626 0.597721 31.1994 1.65747 32.2592C2.71721 33.3189 4.15407 33.915 5.65278 33.9167H33.9167C35.4154 33.915 36.8522 33.3189 37.912 32.2592C38.9717 31.1994 39.5678 29.7626 39.5694 28.2639V5.65278C39.5678 4.15407 38.9717 2.71721 37.912 1.65747C36.8522 0.597721 35.4154 0.00163653 33.9167 0ZM26.8507 5.65278C27.6892 5.65278 28.5089 5.90142 29.2061 6.36728C29.9033 6.83313 30.4467 7.49526 30.7676 8.26994C31.0884 9.04462 31.1724 9.89706 31.0088 10.7195C30.8452 11.5419 30.4414 12.2973 29.8485 12.8902C29.2556 13.4831 28.5002 13.8869 27.6778 14.0505C26.8554 14.2141 26.003 14.1301 25.2283 13.8092C24.4536 13.4883 23.7915 12.9449 23.3256 12.2477C22.8598 11.5506 22.6111 10.7309 22.6111 9.89236C22.6123 8.76831 23.0593 7.69064 23.8541 6.89581C24.649 6.10099 25.7266 5.65395 26.8507 5.65278ZM5.65278 31.0903C4.90317 31.0903 4.18427 30.7925 3.65422 30.2624C3.12417 29.7324 2.82639 29.0135 2.82639 28.2639V22.2905L11.2031 14.8447C12.0113 14.1279 13.0624 13.7462 14.1422 13.7774C15.222 13.8086 16.2494 14.2503 17.0149 15.0125L22.7515 20.7369L12.3981 31.0903H5.65278ZM36.7431 28.2639C36.7431 29.0135 36.4453 29.7324 35.9152 30.2624C35.3852 30.7925 34.6663 31.0903 33.9167 31.0903H16.3957L27.1201 20.3659C27.8794 19.7202 28.8429 19.3644 29.8397 19.3619C30.8364 19.3593 31.8018 19.71 32.5644 20.3518L36.7431 23.8335V28.2639Z" fill="#D8D8E2"/>
</svg>
