<svg width="18" height="18" viewBox="0 0 18 18" fill="none" xmlns="http://www.w3.org/2000/svg">
<path d="M15.5803 13.5C16.1428 13.5 16.5891 13.1468 16.9903 12.6525C17.8123 11.64 16.4631 10.83 15.9486 10.4348C15.4258 10.032 14.8416 9.80325 14.2498 9.75M13.4998 8.25C13.9971 8.25 14.474 8.05246 14.8257 7.70083C15.1773 7.34919 15.3748 6.87228 15.3748 6.375C15.3748 5.87772 15.1773 5.40081 14.8257 5.04917C14.474 4.69754 13.9971 4.5 13.4998 4.5M2.41934 13.5C1.85684 13.5 1.41059 13.1468 1.00934 12.6525C0.187336 11.64 1.53659 10.83 2.05109 10.4348C2.57384 10.032 3.15734 9.8025 3.74984 9.75M4.12484 8.25C3.62756 8.25 3.15064 8.05246 2.79901 7.70083C2.44738 7.34919 2.24984 6.87228 2.24984 6.375C2.24984 5.87772 2.44738 5.40081 2.79901 5.04917C3.15064 4.69754 3.62756 4.5 4.12484 4.5M6.06284 11.3333C5.29634 11.8073 3.28709 12.7747 4.51034 13.9852C5.10959 14.577 5.77484 15 6.61259 15H11.3886C12.2263 15 12.8916 14.577 13.4893 13.9852C14.7133 12.7747 12.7041 11.8073 11.9376 11.3333C11.0547 10.7888 10.0379 10.5004 9.00059 10.5004C7.96331 10.5004 6.94646 10.7888 6.06359 11.3333M11.6248 5.625C11.6248 5.96972 11.5569 6.31106 11.425 6.62954C11.2931 6.94802 11.0997 7.2374 10.856 7.48116C10.6122 7.72491 10.3229 7.91827 10.0044 8.05018C9.6859 8.1821 9.34456 8.25 8.99984 8.25C8.65512 8.25 8.31377 8.1821 7.99529 8.05018C7.67681 7.91827 7.38743 7.72491 7.14368 7.48116C6.89993 7.2374 6.70657 6.94802 6.57465 6.62954C6.44273 6.31106 6.37484 5.96972 6.37484 5.625C6.37484 4.92881 6.6514 4.26113 7.14368 3.76884C7.63596 3.27656 8.30364 3 8.99984 3C9.69603 3 10.3637 3.27656 10.856 3.76884C11.3483 4.26113 11.6248 4.92881 11.6248 5.625Z" stroke="white" stroke-linecap="round" stroke-linejoin="round"/>
</svg>
