<svg width="108" height="25" viewBox="0 0 108 25" fill="none" xmlns="http://www.w3.org/2000/svg">
<path d="M5.176 16.09C4.732 16.09 4.414 15.994 4.222 15.802C4.03 15.598 3.934 15.22 3.934 14.668C3.934 14.296 3.97 13.822 4.042 13.246C4.126 12.658 4.258 11.854 4.438 10.834C4.75 8.95 4.996 7.318 5.176 5.938C5.284 5.074 5.338 4.354 5.338 3.778C5.338 3.238 5.14 2.968 4.744 2.968C4.432 2.968 4.054 3.13 3.61 3.454C3.178 3.766 2.698 4.27 2.17 4.966C2.002 5.194 1.816 5.308 1.612 5.308C1.444 5.308 1.294 5.23 1.162 5.074C1.042 4.906 0.982 4.72 0.982 4.516C0.982 4.324 1.018 4.132 1.09 3.94C1.174 3.736 1.306 3.508 1.486 3.256C2.062 2.452 2.704 1.834 3.412 1.402C4.12 0.957999 4.828 0.735999 5.536 0.735999C6.196 0.735999 6.7 0.945999 7.048 1.366C7.408 1.786 7.588 2.398 7.588 3.202C7.588 3.526 7.558 3.91 7.498 4.354C7.438 4.786 7.384 5.14 7.336 5.416C7.288 5.692 7.252 5.884 7.228 5.992C7.912 4.036 8.68 2.674 9.532 1.906C10.384 1.126 11.32 0.735999 12.34 0.735999C13.12 0.735999 13.732 1.012 14.176 1.564C14.632 2.116 14.86 2.896 14.86 3.904C14.86 4.3 14.806 4.792 14.698 5.38C15.298 3.724 16 2.536 16.804 1.816C17.608 1.096 18.532 0.735999 19.576 0.735999C20.416 0.735999 21.058 1.006 21.502 1.546C21.958 2.086 22.186 2.842 22.186 3.814C22.186 4.342 22.108 4.984 21.952 5.74L20.854 10.888C20.734 11.488 20.674 12.004 20.674 12.436C20.674 12.94 20.788 13.318 21.016 13.57C21.256 13.822 21.586 13.948 22.006 13.948C22.402 13.948 22.786 13.816 23.158 13.552C23.542 13.288 23.992 12.85 24.508 12.238C24.652 12.07 24.814 11.986 24.994 11.986C25.15 11.986 25.27 12.058 25.354 12.202C25.45 12.346 25.498 12.544 25.498 12.796C25.498 13.264 25.384 13.636 25.156 13.912C24.532 14.668 23.914 15.22 23.302 15.568C22.69 15.916 22.048 16.09 21.376 16.09C20.356 16.09 19.558 15.79 18.982 15.19C18.406 14.578 18.118 13.762 18.118 12.742C18.118 12.034 18.262 11.008 18.55 9.664L19.27 6.37C19.294 6.262 19.336 6.07 19.396 5.794C19.456 5.518 19.504 5.26 19.54 5.02C19.576 4.768 19.594 4.522 19.594 4.282C19.594 3.862 19.51 3.55 19.342 3.346C19.186 3.13 18.958 3.022 18.658 3.022C18.094 3.022 17.5 3.388 16.876 4.12C16.264 4.84 15.676 6.04 15.112 7.72C14.56 9.4 14.11 11.584 13.762 14.272C13.678 14.992 13.528 15.478 13.312 15.73C13.108 15.97 12.772 16.09 12.304 16.09C11.896 16.09 11.596 15.994 11.404 15.802C11.224 15.61 11.134 15.25 11.134 14.722C11.134 14.23 11.2 13.588 11.332 12.796C11.464 11.992 11.632 11.05 11.836 9.97C12.388 7.066 12.664 5.194 12.664 4.354C12.664 3.898 12.574 3.562 12.394 3.346C12.226 3.13 11.968 3.022 11.62 3.022C11.032 3.022 10.426 3.358 9.802 4.03C9.178 4.69 8.566 5.872 7.966 7.576C7.378 9.268 6.886 11.56 6.49 14.452C6.406 15.064 6.28 15.49 6.112 15.73C5.956 15.97 5.644 16.09 5.176 16.09ZM33.2636 12.022C33.4196 12.022 33.5396 12.1 33.6236 12.256C33.7196 12.4 33.7676 12.586 33.7676 12.814C33.7676 13.09 33.7256 13.306 33.6416 13.462C33.5576 13.618 33.4256 13.756 33.2456 13.876L29.7896 16.198C29.3336 18.682 28.7336 20.632 27.9896 22.048C27.2576 23.476 26.3216 24.19 25.1816 24.19C24.5696 24.19 24.0716 23.998 23.6876 23.614C23.3036 23.242 23.1116 22.75 23.1116 22.138C23.1116 21.574 23.2376 20.998 23.4896 20.41C23.7536 19.822 24.2336 19.144 24.9296 18.376C25.6376 17.62 26.6336 16.75 27.9176 15.766L27.9716 15.352C28.0556 14.908 28.1516 14.272 28.2596 13.444C28.0196 14.308 27.6836 14.968 27.2516 15.424C26.8196 15.868 26.3636 16.09 25.8836 16.09C25.3436 16.09 24.8996 15.844 24.5516 15.352C24.2156 14.848 24.0476 14.224 24.0476 13.48C24.0476 12.58 24.1076 11.758 24.2276 11.014C24.3476 10.258 24.5456 9.46 24.8216 8.62C24.9416 8.26 25.1096 8.002 25.3256 7.846C25.5416 7.69 25.8836 7.612 26.3516 7.612C26.6156 7.612 26.7956 7.654 26.8916 7.738C26.9996 7.822 27.0536 7.948 27.0536 8.116C27.0536 8.212 26.9876 8.536 26.8556 9.088C26.7356 9.532 26.6396 9.934 26.5676 10.294C26.4716 10.786 26.3876 11.26 26.3156 11.716C26.2436 12.16 26.2076 12.526 26.2076 12.814C26.2076 13.27 26.3336 13.498 26.5856 13.498C26.7656 13.498 26.9876 13.318 27.2516 12.958C27.5276 12.598 27.8156 12.052 28.1156 11.32C28.4276 10.588 28.7276 9.688 29.0156 8.62C29.1116 8.26 29.2556 8.002 29.4476 7.846C29.6516 7.69 29.9516 7.612 30.3476 7.612C30.6236 7.612 30.8156 7.648 30.9236 7.72C31.0316 7.792 31.0856 7.912 31.0856 8.08C31.0856 8.38 30.9296 9.412 30.6176 11.176L30.1496 14.074C31.0736 13.378 31.9736 12.742 32.8496 12.166C33.0056 12.07 33.1436 12.022 33.2636 12.022ZM25.3796 22.444C25.6796 22.444 26.0156 22.096 26.3876 21.4C26.7596 20.704 27.1316 19.546 27.5036 17.926C26.5796 18.706 25.9076 19.414 25.4876 20.05C25.0796 20.698 24.8756 21.262 24.8756 21.742C24.8756 21.946 24.9116 22.114 24.9836 22.246C25.0676 22.378 25.1996 22.444 25.3796 22.444ZM37.1969 16.09C36.3689 16.09 35.6189 15.886 34.9469 15.478C34.2869 15.07 33.7649 14.482 33.3809 13.714C32.9969 12.934 32.8049 12.016 32.8049 10.96C32.8049 9.136 33.1949 7.45 33.9749 5.902C34.7549 4.342 35.9069 3.094 37.4309 2.158C38.9549 1.21 40.7849 0.735999 42.9209 0.735999C43.4729 0.735999 44.0609 0.777999 44.6849 0.862C45.3209 0.945999 45.8969 1.072 46.4129 1.24C46.7489 1.336 46.9169 1.576 46.9169 1.96C46.9169 2.272 46.7969 2.566 46.5569 2.842C46.3289 3.118 46.0589 3.256 45.7469 3.256C45.6509 3.256 45.5789 3.25 45.5309 3.238C44.9069 3.094 44.3729 2.992 43.9289 2.932C43.4849 2.86 43.0169 2.824 42.5249 2.824C41.0009 2.824 39.7049 3.196 38.6369 3.94C37.5689 4.672 36.7709 5.644 36.2429 6.856C35.7149 8.068 35.4509 9.376 35.4509 10.78C35.4509 11.8 35.6489 12.592 36.0449 13.156C36.4529 13.708 36.9809 13.984 37.6289 13.984C38.3609 13.984 39.0029 13.684 39.5549 13.084C40.1069 12.484 40.6109 11.512 41.0669 10.168C41.5229 8.824 41.9729 7 42.4169 4.696C42.4889 4.36 42.6329 4.132 42.8489 4.012C43.0649 3.892 43.3529 3.832 43.7129 3.832C44.5649 3.832 44.9909 4.108 44.9909 4.66C44.9909 4.756 44.9729 4.876 44.9369 5.02C44.6249 6.184 44.3369 7.474 44.0729 8.89C43.8209 10.294 43.6949 11.362 43.6949 12.094C43.6949 12.742 43.7909 13.216 43.9829 13.516C44.1749 13.804 44.4689 13.948 44.8649 13.948C45.2489 13.948 45.6149 13.822 45.9629 13.57C46.3109 13.306 46.7489 12.862 47.2769 12.238C47.4209 12.07 47.5829 11.986 47.7629 11.986C47.9189 11.986 48.0389 12.058 48.1229 12.202C48.2189 12.346 48.2669 12.544 48.2669 12.796C48.2669 13.264 48.1529 13.636 47.9249 13.912C47.3369 14.62 46.7609 15.16 46.1969 15.532C45.6329 15.904 44.9429 16.09 44.1269 16.09C43.2869 16.09 42.6089 15.85 42.0929 15.37C41.5769 14.878 41.2529 14.188 41.1209 13.3C40.2329 15.16 38.9249 16.09 37.1969 16.09ZM56.4233 11.986C56.5793 11.986 56.6993 12.058 56.7833 12.202C56.8793 12.346 56.9273 12.544 56.9273 12.796C56.9273 13.276 56.8133 13.648 56.5853 13.912C56.0693 14.548 55.5113 15.07 54.9113 15.478C54.3233 15.886 53.6513 16.09 52.8953 16.09C52.2593 16.09 51.7433 15.862 51.3473 15.406C50.6633 15.85 49.9493 16.078 49.2053 16.09C49.0493 18.406 48.6953 20.338 48.1433 21.886C47.5913 23.446 46.7813 24.226 45.7133 24.226C45.0653 24.226 44.5853 23.992 44.2733 23.524C43.9613 23.056 43.8053 22.408 43.8053 21.58C43.8053 20.404 44.0753 19.03 44.6153 17.458C45.1553 15.898 45.9893 14.176 47.1173 12.292C47.1173 10.54 47.1053 9.322 47.0813 8.638C47.0693 8.29 47.2073 8.014 47.4953 7.81C47.7833 7.606 48.1433 7.504 48.5753 7.504C48.8273 7.504 49.0073 7.558 49.1153 7.666C49.2353 7.762 49.3013 7.96 49.3133 8.26C49.3133 8.56 49.3193 8.782 49.3313 8.926C49.7153 8.446 50.0933 8.104 50.4653 7.9C50.8373 7.684 51.2333 7.576 51.6533 7.576C52.3253 7.576 52.8713 7.846 53.2913 8.386C53.7233 8.926 53.9393 9.634 53.9393 10.51C53.9393 11.146 53.8373 11.764 53.6333 12.364C53.4293 12.964 53.1473 13.51 52.7873 14.002C53.0393 14.074 53.2493 14.11 53.4173 14.11C53.8133 14.11 54.1913 13.966 54.5513 13.678C54.9113 13.39 55.3733 12.91 55.9373 12.238C56.0813 12.07 56.2433 11.986 56.4233 11.986ZM49.2953 14.362C49.7273 14.266 50.1233 14.032 50.4833 13.66C50.8553 13.276 51.1493 12.808 51.3653 12.256C51.5813 11.692 51.6893 11.104 51.6893 10.492C51.6893 10.132 51.6173 9.862 51.4733 9.682C51.3293 9.49 51.1373 9.394 50.8973 9.394C50.4653 9.394 49.9433 9.85 49.3313 10.762C49.3193 11.29 49.3133 12.064 49.3133 13.084C49.3133 13.636 49.3073 14.062 49.2953 14.362ZM45.8573 22.462C46.1813 22.462 46.4513 21.754 46.6673 20.338C46.8833 18.934 47.0213 17.182 47.0813 15.082C46.5653 16.282 46.1573 17.428 45.8573 18.52C45.5573 19.612 45.4073 20.53 45.4073 21.274C45.4073 21.658 45.4553 21.952 45.5513 22.156C45.6353 22.36 45.7373 22.462 45.8573 22.462ZM65.0893 11.986C65.2453 11.986 65.3653 12.058 65.4493 12.202C65.5453 12.346 65.5933 12.544 65.5933 12.796C65.5933 13.276 65.4793 13.648 65.2513 13.912C64.7353 14.548 64.1773 15.07 63.5773 15.478C62.9893 15.886 62.3173 16.09 61.5613 16.09C60.9253 16.09 60.4093 15.862 60.0133 15.406C59.3293 15.85 58.6153 16.078 57.8713 16.09C57.7153 18.406 57.3613 20.338 56.8093 21.886C56.2573 23.446 55.4473 24.226 54.3793 24.226C53.7313 24.226 53.2513 23.992 52.9393 23.524C52.6273 23.056 52.4713 22.408 52.4713 21.58C52.4713 20.404 52.7413 19.03 53.2813 17.458C53.8213 15.898 54.6553 14.176 55.7833 12.292C55.7833 10.54 55.7713 9.322 55.7473 8.638C55.7353 8.29 55.8733 8.014 56.1613 7.81C56.4493 7.606 56.8093 7.504 57.2413 7.504C57.4933 7.504 57.6733 7.558 57.7813 7.666C57.9013 7.762 57.9673 7.96 57.9793 8.26C57.9793 8.56 57.9853 8.782 57.9973 8.926C58.3813 8.446 58.7593 8.104 59.1313 7.9C59.5033 7.684 59.8993 7.576 60.3193 7.576C60.9913 7.576 61.5373 7.846 61.9573 8.386C62.3893 8.926 62.6053 9.634 62.6053 10.51C62.6053 11.146 62.5033 11.764 62.2993 12.364C62.0953 12.964 61.8133 13.51 61.4533 14.002C61.7053 14.074 61.9153 14.11 62.0833 14.11C62.4793 14.11 62.8573 13.966 63.2173 13.678C63.5773 13.39 64.0393 12.91 64.6033 12.238C64.7473 12.07 64.9093 11.986 65.0893 11.986ZM57.9613 14.362C58.3933 14.266 58.7893 14.032 59.1493 13.66C59.5213 13.276 59.8153 12.808 60.0313 12.256C60.2473 11.692 60.3553 11.104 60.3553 10.492C60.3553 10.132 60.2833 9.862 60.1393 9.682C59.9953 9.49 59.8033 9.394 59.5633 9.394C59.1313 9.394 58.6093 9.85 57.9973 10.762C57.9853 11.29 57.9793 12.064 57.9793 13.084C57.9793 13.636 57.9733 14.062 57.9613 14.362ZM54.5233 22.462C54.8473 22.462 55.1173 21.754 55.3333 20.338C55.5493 18.934 55.6873 17.182 55.7473 15.082C55.2313 16.282 54.8233 17.428 54.5233 18.52C54.2233 19.612 54.0733 20.53 54.0733 21.274C54.0733 21.658 54.1213 21.952 54.2173 22.156C54.3013 22.36 54.4033 22.462 54.5233 22.462ZM69.1653 16.144C67.5693 16.144 66.2913 15.844 65.3313 15.244C64.3713 14.632 63.8913 13.702 63.8913 12.454C63.8913 11.794 64.0053 11.29 64.2333 10.942C64.4613 10.594 64.7973 10.42 65.2413 10.42C65.5653 10.42 65.8293 10.504 66.0333 10.672C66.2373 10.84 66.3393 11.056 66.3393 11.32C66.3393 11.56 66.3213 11.77 66.2853 11.95C66.2853 11.998 66.2733 12.082 66.2493 12.202C66.2373 12.322 66.2313 12.448 66.2313 12.58C66.2313 13.12 66.5013 13.522 67.0413 13.786C67.5933 14.05 68.3613 14.182 69.3453 14.182C70.3653 14.182 71.1633 14.002 71.7393 13.642C72.3153 13.27 72.6033 12.754 72.6033 12.094C72.6033 11.686 72.4713 11.338 72.2073 11.05C71.9433 10.75 71.6133 10.504 71.2173 10.312C70.8213 10.108 70.2633 9.862 69.5433 9.574C68.6193 9.214 67.8633 8.872 67.2753 8.548C66.6993 8.224 66.2013 7.786 65.7813 7.234C65.3733 6.67 65.1693 5.974 65.1693 5.146C65.1693 4.282 65.3973 3.514 65.8533 2.842C66.3213 2.17 66.9873 1.648 67.8513 1.276C68.7273 0.903999 69.7533 0.717999 70.9293 0.717999C71.8053 0.717999 72.6093 0.849999 73.3413 1.114C74.0733 1.366 74.6553 1.756 75.0873 2.284C75.5313 2.812 75.7533 3.46 75.7533 4.228C75.7533 4.984 75.6393 5.554 75.4113 5.938C75.1833 6.322 74.8473 6.514 74.4033 6.514C74.0913 6.514 73.8273 6.418 73.6113 6.226C73.4073 6.034 73.3053 5.806 73.3053 5.542C73.3053 5.314 73.3233 5.104 73.3593 4.912C73.3953 4.552 73.4133 4.324 73.4133 4.228C73.4133 3.724 73.1673 3.34 72.6753 3.076C72.1833 2.812 71.5713 2.68 70.8393 2.68C69.8073 2.68 69.0153 2.872 68.4633 3.256C67.9233 3.628 67.6533 4.156 67.6533 4.84C67.6533 5.296 67.7913 5.686 68.0673 6.01C68.3553 6.334 68.7093 6.604 69.1293 6.82C69.5493 7.036 70.1373 7.294 70.8933 7.594C71.8053 7.966 72.5373 8.302 73.0893 8.602C73.6413 8.902 74.1093 9.31 74.4933 9.826C74.8893 10.342 75.0873 10.978 75.0873 11.734C75.0873 13.15 74.5473 14.242 73.4673 15.01C72.3993 15.766 70.9653 16.144 69.1653 16.144ZM86.2358 11.986C86.3918 11.986 86.5118 12.058 86.5958 12.202C86.6918 12.346 86.7398 12.544 86.7398 12.796C86.7398 13.276 86.6258 13.648 86.3978 13.912C85.8818 14.548 85.3238 15.07 84.7238 15.478C84.1358 15.886 83.4638 16.09 82.7078 16.09C82.0718 16.09 81.5558 15.862 81.1598 15.406C80.4758 15.85 79.7618 16.078 79.0178 16.09C78.8618 18.406 78.5078 20.338 77.9558 21.886C77.4038 23.446 76.5938 24.226 75.5258 24.226C74.8778 24.226 74.3978 23.992 74.0858 23.524C73.7738 23.056 73.6178 22.408 73.6178 21.58C73.6178 20.404 73.8878 19.03 74.4278 17.458C74.9678 15.898 75.8018 14.176 76.9298 12.292C76.9298 10.54 76.9178 9.322 76.8938 8.638C76.8818 8.29 77.0198 8.014 77.3078 7.81C77.5958 7.606 77.9558 7.504 78.3878 7.504C78.6398 7.504 78.8198 7.558 78.9278 7.666C79.0478 7.762 79.1138 7.96 79.1258 8.26C79.1258 8.56 79.1318 8.782 79.1438 8.926C79.5278 8.446 79.9058 8.104 80.2778 7.9C80.6498 7.684 81.0458 7.576 81.4658 7.576C82.1378 7.576 82.6838 7.846 83.1038 8.386C83.5358 8.926 83.7518 9.634 83.7518 10.51C83.7518 11.146 83.6498 11.764 83.4458 12.364C83.2418 12.964 82.9598 13.51 82.5998 14.002C82.8518 14.074 83.0618 14.11 83.2298 14.11C83.6258 14.11 84.0038 13.966 84.3638 13.678C84.7238 13.39 85.1858 12.91 85.7498 12.238C85.8938 12.07 86.0558 11.986 86.2358 11.986ZM79.1078 14.362C79.5398 14.266 79.9358 14.032 80.2958 13.66C80.6678 13.276 80.9618 12.808 81.1778 12.256C81.3938 11.692 81.5018 11.104 81.5018 10.492C81.5018 10.132 81.4298 9.862 81.2858 9.682C81.1418 9.49 80.9498 9.394 80.7098 9.394C80.2778 9.394 79.7558 9.85 79.1438 10.762C79.1318 11.29 79.1258 12.064 79.1258 13.084C79.1258 13.636 79.1198 14.062 79.1078 14.362ZM75.6698 22.462C75.9938 22.462 76.2638 21.754 76.4798 20.338C76.6958 18.934 76.8338 17.182 76.8938 15.082C76.3778 16.282 75.9698 17.428 75.6698 18.52C75.3698 19.612 75.2198 20.53 75.2198 21.274C75.2198 21.658 75.2678 21.952 75.3638 22.156C75.4478 22.36 75.5498 22.462 75.6698 22.462ZM87.5038 16.09C86.7598 16.09 86.1658 15.82 85.7218 15.28C85.2778 14.74 85.0558 14.032 85.0558 13.156C85.0558 12.196 85.2778 11.29 85.7218 10.438C86.1658 9.574 86.7538 8.884 87.4858 8.368C88.2298 7.84 89.0158 7.576 89.8438 7.576C90.1078 7.576 90.2818 7.63 90.3658 7.738C90.4618 7.834 90.5398 8.014 90.5998 8.278C90.8518 8.23 91.1158 8.206 91.3918 8.206C91.9798 8.206 92.2738 8.416 92.2738 8.836C92.2738 9.088 92.1838 9.688 92.0038 10.636C91.7278 12.016 91.5898 12.976 91.5898 13.516C91.5898 13.696 91.6318 13.84 91.7158 13.948C91.8118 14.056 91.9318 14.11 92.0758 14.11C92.3038 14.11 92.5798 13.966 92.9038 13.678C93.2278 13.378 93.6658 12.898 94.2178 12.238C94.3618 12.07 94.5238 11.986 94.7038 11.986C94.8598 11.986 94.9798 12.058 95.0638 12.202C95.1598 12.346 95.2078 12.544 95.2078 12.796C95.2078 13.276 95.0938 13.648 94.8658 13.912C94.3738 14.524 93.8518 15.04 93.2998 15.46C92.7478 15.88 92.2138 16.09 91.6978 16.09C91.3018 16.09 90.9358 15.958 90.5998 15.694C90.2758 15.418 90.0298 15.046 89.8618 14.578C89.2378 15.586 88.4518 16.09 87.5038 16.09ZM88.1518 14.272C88.4158 14.272 88.6678 14.116 88.9078 13.804C89.1478 13.492 89.3218 13.078 89.4298 12.562L90.0958 9.25C89.5918 9.262 89.1238 9.454 88.6918 9.826C88.2718 10.186 87.9358 10.666 87.6838 11.266C87.4318 11.866 87.3058 12.502 87.3058 13.174C87.3058 13.546 87.3778 13.822 87.5218 14.002C87.6778 14.182 87.8878 14.272 88.1518 14.272ZM97.1829 16.09C96.0069 16.09 95.0889 15.76 94.4289 15.1C93.7809 14.428 93.4569 13.546 93.4569 12.454C93.4569 11.482 93.6489 10.63 94.0329 9.898C94.4169 9.166 94.9149 8.602 95.5269 8.206C96.1389 7.81 96.7809 7.612 97.4529 7.612C98.1129 7.612 98.6229 7.81 98.9829 8.206C99.3549 8.59 99.5409 9.088 99.5409 9.7C99.5409 10.204 99.4269 10.63 99.1989 10.978C98.9829 11.326 98.6949 11.5 98.3349 11.5C98.1069 11.5 97.9209 11.446 97.7769 11.338C97.6449 11.23 97.5789 11.08 97.5789 10.888C97.5789 10.804 97.5909 10.708 97.6149 10.6C97.6389 10.492 97.6569 10.414 97.6689 10.366C97.7289 10.186 97.7589 10.018 97.7589 9.862C97.7589 9.706 97.7169 9.586 97.6329 9.502C97.5609 9.418 97.4529 9.376 97.3089 9.376C97.0329 9.376 96.7749 9.502 96.5349 9.754C96.2949 9.994 96.1029 10.324 95.9589 10.744C95.8149 11.164 95.7429 11.626 95.7429 12.13C95.7429 13.522 96.3489 14.218 97.5609 14.218C98.0529 14.218 98.5809 14.056 99.1449 13.732C99.7209 13.396 100.285 12.898 100.837 12.238C100.981 12.07 101.143 11.986 101.323 11.986C101.479 11.986 101.599 12.058 101.683 12.202C101.779 12.346 101.827 12.544 101.827 12.796C101.827 13.252 101.713 13.624 101.485 13.912C100.921 14.608 100.243 15.148 99.4509 15.532C98.6709 15.904 97.9149 16.09 97.1829 16.09ZM106.816 12.526C106.972 12.526 107.092 12.598 107.176 12.742C107.272 12.886 107.32 13.084 107.32 13.336C107.32 13.768 107.218 14.14 107.014 14.452C106.678 14.968 106.234 15.37 105.682 15.658C105.142 15.946 104.494 16.09 103.738 16.09C102.586 16.09 101.692 15.748 101.056 15.064C100.42 14.368 100.102 13.432 100.102 12.256C100.102 11.428 100.276 10.66 100.624 9.952C100.972 9.232 101.452 8.662 102.064 8.242C102.688 7.822 103.39 7.612 104.17 7.612C104.866 7.612 105.424 7.822 105.844 8.242C106.264 8.65 106.474 9.208 106.474 9.916C106.474 10.744 106.174 11.458 105.574 12.058C104.986 12.646 103.978 13.114 102.55 13.462C102.838 14.014 103.324 14.29 104.008 14.29C104.5 14.29 104.902 14.176 105.214 13.948C105.538 13.72 105.91 13.336 106.33 12.796C106.474 12.616 106.636 12.526 106.816 12.526ZM103.864 9.376C103.42 9.376 103.042 9.634 102.73 10.15C102.43 10.666 102.28 11.29 102.28 12.022V12.058C102.988 11.89 103.546 11.638 103.954 11.302C104.362 10.966 104.566 10.576 104.566 10.132C104.566 9.904 104.5 9.724 104.368 9.592C104.248 9.448 104.08 9.376 103.864 9.376Z" fill="white"/>
</svg>
