<svg width="193" height="43" viewBox="0 0 193 43" fill="none" xmlns="http://www.w3.org/2000/svg">
<path d="M7.875 26.4688C7.83333 26.7812 7.73438 27.0365 7.57812 27.2344C7.42188 27.4323 7.23438 27.5885 7.01562 27.7031C6.79688 27.8177 6.5625 27.901 6.3125 27.9531C6.0625 27.9948 5.82292 28.0156 5.59375 28.0156C5.32292 28.0156 5.05729 27.9896 4.79688 27.9375C4.54688 27.875 4.32292 27.7865 4.125 27.6719C3.92708 27.5469 3.77083 27.401 3.65625 27.2344C3.54167 27.0573 3.48438 26.8594 3.48438 26.6406C3.48438 26.2135 3.50521 25.8229 3.54688 25.4688C3.58854 25.1042 3.65104 24.7396 3.73438 24.375C4.02604 23.1562 4.28125 22.026 4.5 20.9844C4.71875 19.9323 4.90625 18.9375 5.0625 18C5.21875 17.0625 5.35417 16.1562 5.46875 15.2812C5.58333 14.3958 5.68229 13.5104 5.76562 12.625C5.85938 11.7292 5.94271 10.8073 6.01562 9.85938C6.08854 8.91146 6.16667 7.89583 6.25 6.8125C6.25 6.71875 6.25 6.59896 6.25 6.45312C6.25 6.30729 6.23438 6.17188 6.20312 6.04688C6.17188 5.91146 6.11458 5.79688 6.03125 5.70312C5.95833 5.60938 5.84375 5.5625 5.6875 5.5625C5.4375 5.5625 5.13021 5.65104 4.76562 5.82812C4.41146 5.99479 4.03646 6.22396 3.64062 6.51562C3.24479 6.80729 2.84896 7.15104 2.45312 7.54688C2.05729 7.93229 1.69271 8.34896 1.35938 8.79688C1.29688 8.95312 1.19792 9.06771 1.0625 9.14062C0.927083 9.20312 0.776042 9.23438 0.609375 9.23438C0.557292 9.23438 0.505208 9.19271 0.453125 9.10938C0.390625 9.01562 0.338542 8.90625 0.296875 8.78125C0.244792 8.65625 0.203125 8.52604 0.171875 8.39062C0.140625 8.24479 0.125 8.11458 0.125 8C0.125 7.9375 0.145833 7.88542 0.1875 7.84375C0.5625 6.61458 0.984375 5.58854 1.45312 4.76562C1.93229 3.93229 2.43229 3.27083 2.95312 2.78125C3.48438 2.28125 4.02083 1.92708 4.5625 1.71875C5.11458 1.51042 5.64062 1.40625 6.14062 1.40625C6.78646 1.40625 7.32292 1.53125 7.75 1.78125C8.17708 2.02083 8.51562 2.36458 8.76562 2.8125C9.01562 3.25 9.1875 3.78125 9.28125 4.40625C9.38542 5.03125 9.4375 5.72396 9.4375 6.48438C9.4375 7.06771 9.39062 7.75 9.29688 8.53125C9.20312 9.3125 9.08333 10.1354 8.9375 11C8.80208 11.8542 8.65104 12.7135 8.48438 13.5781C8.31771 14.4427 8.15625 15.25 8 16C8.33333 14.6146 8.72396 13.2865 9.17188 12.0156C9.63021 10.7344 10.125 9.54167 10.6562 8.4375C11.1979 7.32292 11.7708 6.31771 12.375 5.42188C12.9792 4.51562 13.599 3.73958 14.2344 3.09375C14.8802 2.44792 15.5312 1.94792 16.1875 1.59375C16.8438 1.23958 17.4948 1.0625 18.1406 1.0625C18.6198 1.0625 19.0625 1.16667 19.4688 1.375C19.875 1.58333 20.224 1.90625 20.5156 2.34375C20.8073 2.78125 21.0312 3.33333 21.1875 4C21.3542 4.66667 21.4375 5.45833 21.4375 6.375C21.4375 6.45833 21.4271 6.58854 21.4062 6.76562C21.3958 6.94271 21.375 7.14583 21.3438 7.375C21.3229 7.60417 21.2917 7.85417 21.25 8.125C21.2188 8.38542 21.1875 8.64583 21.1562 8.90625C21.0729 9.53125 20.9844 10.2083 20.8906 10.9375L21.2188 10.9219C21.625 9.38021 22.125 7.99479 22.7188 6.76562C23.3125 5.53646 23.9792 4.49479 24.7188 3.64062C25.4583 2.77604 26.2552 2.11458 27.1094 1.65625C27.9635 1.19792 28.849 0.96875 29.7656 0.96875C30.401 0.96875 30.9635 1.15625 31.4531 1.53125C31.9531 1.90625 32.3698 2.41667 32.7031 3.0625C33.0365 3.69792 33.2917 4.44792 33.4688 5.3125C33.6458 6.16667 33.7344 7.07292 33.7344 8.03125C33.7344 8.92708 33.6719 9.84896 33.5469 10.7969C33.4323 11.7344 33.2865 12.6667 33.1094 13.5938C32.9323 14.5104 32.7396 15.4115 32.5312 16.2969C32.3333 17.1823 32.1458 18.0208 31.9688 18.8125C31.7917 19.6042 31.6406 20.3385 31.5156 21.0156C31.401 21.6823 31.3438 22.2604 31.3438 22.75C31.3438 23.3646 31.4531 23.8125 31.6719 24.0938C31.901 24.3646 32.2292 24.5 32.6562 24.5C32.8958 24.5 33.1458 24.4375 33.4062 24.3125C33.6771 24.1771 33.9427 24.0052 34.2031 23.7969C34.474 23.5781 34.7396 23.3333 35 23.0625C35.2604 22.7812 35.5104 22.4948 35.75 22.2031C36.3021 21.5365 36.849 20.7708 37.3906 19.9062C37.3906 19.9167 37.4375 20.026 37.5312 20.2344C37.6042 20.4115 37.724 20.7135 37.8906 21.1406C38.0573 21.5677 38.2917 22.1823 38.5938 22.9844C38.0729 23.901 37.5365 24.6771 36.9844 25.3125C36.4323 25.9479 35.8698 26.4688 35.2969 26.875C34.724 27.2708 34.1406 27.5573 33.5469 27.7344C32.9635 27.9115 32.3802 28 31.7969 28C31.2344 28 30.6823 27.901 30.1406 27.7031C29.6094 27.5052 29.1354 27.2135 28.7188 26.8281C28.3021 26.4323 27.9688 25.9479 27.7188 25.375C27.4688 24.7917 27.3438 24.125 27.3438 23.375C27.3438 23.2917 27.3438 23.2031 27.3438 23.1094C27.3542 23.0156 27.3646 22.9219 27.375 22.8281C27.4167 22.1302 27.5052 21.3906 27.6406 20.6094C27.776 19.8177 27.9271 19.0052 28.0938 18.1719C28.2708 17.3385 28.4531 16.4896 28.6406 15.625C28.8281 14.7604 29 13.901 29.1562 13.0469C29.3125 12.1823 29.4427 11.3333 29.5469 10.5C29.651 9.65625 29.7031 8.84896 29.7031 8.07812C29.7031 7.60938 29.6875 7.1875 29.6562 6.8125C29.625 6.42708 29.5625 6.10417 29.4688 5.84375C29.375 5.57292 29.2396 5.36458 29.0625 5.21875C28.8854 5.07292 28.651 5 28.3594 5C27.8073 5 27.2865 5.19271 26.7969 5.57812C26.3073 5.96354 25.8438 6.49479 25.4062 7.17188C24.9688 7.84896 24.5573 8.65104 24.1719 9.57812C23.7969 10.5052 23.4375 11.5104 23.0938 12.5938C22.7604 13.6667 22.4479 14.7969 22.1562 15.9844C21.8646 17.1615 21.5938 18.349 21.3438 19.5469C21.0938 20.7448 20.8594 21.9271 20.6406 23.0938C20.4219 24.2604 20.2188 25.3646 20.0312 26.4062C19.9479 26.6979 19.8177 26.9479 19.6406 27.1562C19.474 27.3542 19.276 27.5156 19.0469 27.6406C18.8281 27.7656 18.5938 27.8594 18.3438 27.9219C18.0938 27.974 17.8438 28 17.5938 28C17.375 28 17.1562 27.9583 16.9375 27.875C16.7292 27.7917 16.5417 27.6615 16.375 27.4844C16.2188 27.2969 16.0885 27.0625 15.9844 26.7812C15.8906 26.5 15.8438 26.1562 15.8438 25.75C15.8438 25.4792 15.9062 25.0156 16.0312 24.3594C16.1562 23.6927 16.3125 22.901 16.5 21.9844C16.6979 21.0573 16.9062 20.0469 17.125 18.9531C17.3542 17.849 17.5625 16.7292 17.75 15.5938C17.9479 14.4479 18.1094 13.3177 18.2344 12.2031C18.3594 11.0885 18.4219 10.0625 18.4219 9.125C18.4219 8.47917 18.4062 7.90104 18.375 7.39062C18.3438 6.88021 18.2708 6.44792 18.1562 6.09375C18.0417 5.73958 17.875 5.46875 17.6562 5.28125C17.4479 5.09375 17.1667 5 16.8125 5C16.5208 5 16.1875 5.19792 15.8125 5.59375C15.4375 5.98958 15.0312 6.53646 14.5938 7.23438C14.1667 7.93229 13.724 8.75521 13.2656 9.70312C12.8073 10.6406 12.349 11.6562 11.8906 12.75C11.4427 13.8438 11.0052 14.9896 10.5781 16.1875C10.1615 17.375 9.77604 18.5677 9.42188 19.7656C9.06771 20.9531 8.75521 22.1198 8.48438 23.2656C8.21354 24.401 8.01042 25.4688 7.875 26.4688ZM45 16C45.0833 15.6458 45.2292 15.3333 45.4375 15.0625C45.6562 14.7812 45.901 14.5469 46.1719 14.3594C46.4531 14.1719 46.7448 14.0312 47.0469 13.9375C47.349 13.8438 47.6354 13.7969 47.9062 13.7969C48.2292 13.7969 48.5 13.8698 48.7188 14.0156C48.9375 14.151 49.0469 14.3698 49.0469 14.6719C49.0469 14.7656 49.0312 14.875 49 15C48.9375 15.2708 48.8594 15.6406 48.7656 16.1094C48.6719 16.5781 48.5677 17.1094 48.4531 17.7031C48.349 18.2969 48.2396 18.9271 48.125 19.5938C48.0104 20.25 47.901 20.9062 47.7969 21.5625C47.5365 23.1042 47.2708 24.7604 47 26.5312C47.3125 26.3542 47.651 26.1354 48.0156 25.875C48.3802 25.6146 48.7865 25.2656 49.2344 24.8281C49.6823 24.3906 50.1823 23.8438 50.7344 23.1875C51.2865 22.5208 51.9062 21.6927 52.5938 20.7031L53.3438 24.1719C53.1562 24.4948 52.9115 24.8281 52.6094 25.1719C52.3177 25.5052 51.9896 25.8438 51.625 26.1875C51.2708 26.5208 50.8958 26.849 50.5 27.1719C50.1146 27.4844 49.7344 27.7812 49.3594 28.0625C48.474 28.7292 47.5208 29.375 46.5 30C46.3021 31.1146 46.0677 32.1979 45.7969 33.25C45.526 34.3125 45.2031 35.3021 44.8281 36.2188C44.4635 37.1458 44.0417 37.9948 43.5625 38.7656C43.0938 39.5365 42.5573 40.1979 41.9531 40.75C41.3594 41.3021 40.6927 41.7292 39.9531 42.0312C39.2135 42.3438 38.3958 42.5 37.5 42.5C37.1458 42.5 36.7604 42.4635 36.3438 42.3906C35.9375 42.3177 35.5573 42.1719 35.2031 41.9531C34.8594 41.7344 34.5729 41.4219 34.3438 41.0156C34.1146 40.6094 34 40.0677 34 39.3906C34 38.9219 34.1198 38.3906 34.3594 37.7969C34.599 37.2135 34.9271 36.5938 35.3438 35.9375C35.7604 35.2917 36.2552 34.6146 36.8281 33.9062C37.401 33.2083 38.0208 32.5104 38.6875 31.8125C39.3646 31.1146 40.0677 30.4271 40.7969 29.75C41.5365 29.0729 42.2812 28.4271 43.0312 27.8125L43.4531 26.3594C42.8906 26.8594 42.3021 27.2656 41.6875 27.5781C41.0833 27.8802 40.4948 28.0312 39.9219 28.0312C39.4219 28.0312 38.9323 27.9323 38.4531 27.7344C37.9844 27.526 37.5677 27.2344 37.2031 26.8594C36.8385 26.474 36.5469 26.0104 36.3281 25.4688C36.1094 24.9167 36 24.2969 36 23.6094C36 22.7031 36.0417 21.8698 36.125 21.1094C36.2188 20.349 36.349 19.625 36.5156 18.9375C36.6823 18.25 36.8906 17.5885 37.1406 16.9531C37.3906 16.3073 37.6771 15.6562 38 15C38.2396 14.5312 38.5833 14.1771 39.0312 13.9375C39.4792 13.6875 39.9167 13.5625 40.3438 13.5625C40.7083 13.5625 41.0208 13.6562 41.2812 13.8438C41.5417 14.0208 41.6719 14.3021 41.6719 14.6875C41.6719 14.8021 41.6562 14.9271 41.625 15.0625C41.6042 15.1979 41.5625 15.3438 41.5 15.5C41.3125 15.9792 41.125 16.5469 40.9375 17.2031C40.7604 17.849 40.599 18.5156 40.4531 19.2031C40.3177 19.8802 40.2083 20.5469 40.125 21.2031C40.0417 21.8594 40 22.4375 40 22.9375C40 23.1979 40.0156 23.4531 40.0469 23.7031C40.0885 23.9427 40.1562 24.1615 40.25 24.3594C40.3438 24.5469 40.4688 24.7031 40.625 24.8281C40.7812 24.9427 40.9792 25 41.2188 25C41.6042 25 41.9531 24.8333 42.2656 24.5C42.5781 24.1667 42.849 23.7656 43.0781 23.2969C43.3073 22.8281 43.4896 22.3438 43.625 21.8438C43.7708 21.3438 43.8646 20.9271 43.9062 20.5938L45 16ZM37.6875 39.5C38.125 39.5 38.5365 39.3698 38.9219 39.1094C39.3177 38.8594 39.6771 38.526 40 38.1094C40.3333 37.6927 40.6354 37.2188 40.9062 36.6875C41.1771 36.1562 41.4167 35.6094 41.625 35.0469C41.8333 34.4948 42.0104 33.9531 42.1562 33.4219C42.3021 32.8906 42.4167 32.4167 42.5 32C42.0938 32.2708 41.6771 32.5938 41.25 32.9688C40.8333 33.3438 40.4219 33.7448 40.0156 34.1719C39.6198 34.6094 39.2396 35.0573 38.875 35.5156C38.5208 35.974 38.2083 36.4115 37.9375 36.8281C37.6667 37.2552 37.4531 37.651 37.2969 38.0156C37.1406 38.3802 37.0625 38.6823 37.0625 38.9219C37.0625 39.3073 37.2708 39.5 37.6875 39.5ZM87.2812 24.5C87.0625 24.7292 86.7812 24.9896 86.4375 25.2812C86.1042 25.5729 85.724 25.8698 85.2969 26.1719C84.8802 26.4635 84.4271 26.75 83.9375 27.0312C83.4479 27.3125 82.9479 27.5625 82.4375 27.7812C81.9271 28 81.4115 28.1719 80.8906 28.2969C80.3802 28.4323 79.8854 28.5 79.4062 28.5C79.0729 28.5 78.7344 28.4427 78.3906 28.3281C78.0573 28.2135 77.75 28.0052 77.4688 27.7031C77.1979 27.3906 76.974 26.9635 76.7969 26.4219C76.6198 25.8802 76.5312 25.1771 76.5312 24.3125C76.5312 23.9479 76.5573 23.5573 76.6094 23.1406C76.6615 22.7135 76.7292 22.2552 76.8125 21.7656C76.2292 22.9427 75.5677 23.9844 74.8281 24.8906C74.099 25.7865 73.3177 26.5417 72.4844 27.1562C71.6615 27.7604 70.8073 28.2188 69.9219 28.5312C69.0365 28.8438 68.151 29 67.2656 29C66.2969 29 65.375 28.8281 64.5 28.4844C63.6354 28.151 62.8698 27.651 62.2031 26.9844C61.5365 26.3073 61.0052 25.4688 60.6094 24.4688C60.224 23.4688 60.0312 22.3021 60.0312 20.9688C60.0312 19.9583 60.1458 18.901 60.375 17.7969C60.6146 16.6927 60.9583 15.5781 61.4062 14.4531C61.8542 13.3281 62.3958 12.2135 63.0312 11.1094C63.6667 10.0052 64.3906 8.95833 65.2031 7.96875C66.0156 6.96875 66.901 6.04688 67.8594 5.20312C68.8281 4.34896 69.8594 3.61458 70.9531 3C72.0469 2.375 73.1979 1.88542 74.4062 1.53125C75.6146 1.17708 76.8698 1 78.1719 1C78.526 1 78.8073 1.03125 79.0156 1.09375C79.2344 1.14583 79.3958 1.21875 79.5 1.3125C79.6146 1.39583 79.6875 1.48438 79.7188 1.57812C79.75 1.67188 79.7656 1.75521 79.7656 1.82812C79.7656 1.88021 79.7604 1.92708 79.75 1.96875C79.75 2.01042 79.75 2.04167 79.75 2.0625V2.14062C80.0312 2.30729 80.3177 2.41146 80.6094 2.45312C80.901 2.48438 81.1875 2.51562 81.4688 2.54688C81.75 2.56771 82.0156 2.61979 82.2656 2.70312C82.5156 2.78646 82.7344 2.95312 82.9219 3.20312C83.1094 3.44271 83.2552 3.79688 83.3594 4.26562C83.474 4.73438 83.5312 5.36979 83.5312 6.17188C83.5312 6.79688 83.4688 7.5 83.3438 8.28125C83.2292 9.0625 83.0729 9.88021 82.875 10.7344C82.6771 11.5885 82.4531 12.4531 82.2031 13.3281C81.9635 14.2031 81.7188 15.0521 81.4688 15.875C81.2292 16.6979 80.9948 17.474 80.7656 18.2031C80.5365 18.9323 80.3438 19.5677 80.1875 20.1094C80.1562 20.5677 80.1302 20.9948 80.1094 21.3906C80.0885 21.7865 80.0781 22.1979 80.0781 22.625C80.0781 22.9583 80.0833 23.2344 80.0938 23.4531C80.1146 23.6615 80.1458 23.8281 80.1875 23.9531C80.2292 24.0781 80.2865 24.1667 80.3594 24.2188C80.4323 24.2604 80.526 24.2812 80.6406 24.2812C80.849 24.2812 81.1094 24.2292 81.4219 24.125C81.7448 24.0104 82.0833 23.8698 82.4375 23.7031C82.8021 23.526 83.1771 23.3333 83.5625 23.125C83.9583 22.9062 84.3333 22.6927 84.6875 22.4844C85.0521 22.2656 85.3906 22.0677 85.7031 21.8906C86.0156 21.7135 86.276 21.5677 86.4844 21.4531L87.2812 24.5ZM79.8906 4.29688C79.526 4.19271 79.1458 4.11979 78.75 4.07812C78.3646 4.02604 77.9896 4 77.625 4C76.7812 4 75.9479 4.16146 75.125 4.48438C74.3021 4.80729 73.5 5.25 72.7188 5.8125C71.9479 6.36458 71.2083 7.02083 70.5 7.78125C69.8021 8.53125 69.1458 9.34375 68.5312 10.2188C67.9271 11.0833 67.3802 11.9844 66.8906 12.9219C66.401 13.8594 65.9792 14.7969 65.625 15.7344C65.2708 16.6615 65 17.5677 64.8125 18.4531C64.625 19.3281 64.5312 20.1354 64.5312 20.875C64.5312 22.3438 64.8229 23.4844 65.4062 24.2969C66 25.099 66.9167 25.5 68.1562 25.5C68.9271 25.5 69.6562 25.3385 70.3438 25.0156C71.0417 24.6927 71.6875 24.2708 72.2812 23.75C72.875 23.2188 73.4167 22.625 73.9062 21.9688C74.4062 21.3021 74.8385 20.6302 75.2031 19.9531C75.5781 19.276 75.8854 18.625 76.125 18C76.3646 17.3646 76.5365 16.8177 76.6406 16.3594L79.8906 4.29688ZM91.9062 25.2188C92.9583 25.2188 93.9167 25.1146 94.7812 24.9062C95.6458 24.6979 96.4271 24.4167 97.125 24.0625C97.8333 23.7083 98.4688 23.2969 99.0312 22.8281C99.6042 22.349 100.12 21.8385 100.578 21.2969L100.75 24.875C100.417 25.2812 100.01 25.6771 99.5312 26.0625C99.0625 26.4375 98.5469 26.7708 97.9844 27.0625C97.4219 27.3438 96.8281 27.5729 96.2031 27.75C95.5885 27.9167 94.9792 28 94.375 28C94.3021 28 94.2083 27.9896 94.0938 27.9688C93.9896 27.9479 93.8021 27.9115 93.5312 27.8594C93.2604 27.8073 92.8698 27.7396 92.3594 27.6562C91.8594 27.5625 91.1771 27.4531 90.3125 27.3281V27.6094C90.3125 29.5052 90.151 31.224 89.8281 32.7656C89.5156 34.3177 89.0938 35.6406 88.5625 36.7344C88.0312 37.8281 87.4219 38.6719 86.7344 39.2656C86.0469 39.8594 85.3333 40.1562 84.5938 40.1562C84 40.1562 83.5052 40.0104 83.1094 39.7188C82.7135 39.4271 82.401 39.0312 82.1719 38.5312C81.9323 38.0417 81.7656 37.4635 81.6719 36.7969C81.5677 36.1406 81.5156 35.4427 81.5156 34.7031C81.5156 34.276 81.5833 33.7917 81.7188 33.25C81.8542 32.7188 82.0365 32.1562 82.2656 31.5625C82.4948 30.9792 82.7552 30.3802 83.0469 29.7656C83.3281 29.1615 83.6198 28.5729 83.9219 28C84.6302 26.6667 85.4375 25.2917 86.3438 23.875C86.4583 23.0625 86.5729 22.2292 86.6875 21.375C86.8125 20.5208 86.9635 19.6927 87.1406 18.8906C87.3281 18.0885 87.5573 17.3281 87.8281 16.6094C88.1094 15.8906 88.4635 15.2656 88.8906 14.7344C89.3281 14.2031 89.849 13.7812 90.4531 13.4688C91.0573 13.1562 91.7865 13 92.6406 13C93.276 13 93.8698 13.0885 94.4219 13.2656C94.974 13.4323 95.4583 13.7083 95.875 14.0938C96.2917 14.4792 96.6198 14.9792 96.8594 15.5938C97.099 16.1979 97.2188 16.9427 97.2188 17.8281C97.2188 18.5365 97.1146 19.224 96.9062 19.8906C96.6979 20.5469 96.3698 21.1771 95.9219 21.7812C95.4844 22.3854 94.9219 22.9531 94.2344 23.4844C93.5573 24.0052 92.75 24.474 91.8125 24.8906L91.9062 25.2188ZM89.9375 23.6406C90.5625 23.3281 91.099 22.9792 91.5469 22.5938C92.0052 22.2083 92.3958 21.7969 92.7188 21.3594C93.0521 20.9219 93.3229 20.4688 93.5312 20C93.7396 19.5312 93.9062 19.0521 94.0312 18.5625C94.0833 18.3333 94.1146 18.0677 94.125 17.7656C94.1458 17.4531 94.1146 17.1615 94.0312 16.8906C93.9583 16.6198 93.8229 16.3906 93.625 16.2031C93.4375 16.0052 93.1719 15.9062 92.8281 15.9062C92.4427 15.9062 92.1042 16.0156 91.8125 16.2344C91.5208 16.4427 91.2656 16.7292 91.0469 17.0938C90.8385 17.4583 90.6615 17.8906 90.5156 18.3906C90.3802 18.8906 90.2656 19.4271 90.1719 20C90.0885 20.5729 90.026 21.1719 89.9844 21.7969C89.9531 22.4115 89.9375 23.026 89.9375 23.6406ZM84.5 34.8906C84.5 34.974 84.5156 35.1094 84.5469 35.2969C84.5885 35.4844 84.651 35.6719 84.7344 35.8594C84.8177 36.0469 84.9271 36.2135 85.0625 36.3594C85.1979 36.5052 85.3646 36.5781 85.5625 36.5781C85.7396 36.5781 85.8854 36.4792 86 36.2812C86.1146 36.0938 86.2083 35.8385 86.2812 35.5156C86.3542 35.1927 86.4062 34.8281 86.4375 34.4219C86.4688 34.0156 86.4948 33.599 86.5156 33.1719C86.5365 32.7448 86.5469 32.3281 86.5469 31.9219C86.5573 31.5156 86.5729 31.151 86.5938 30.8281C86.625 30.2656 86.6458 29.7865 86.6562 29.3906C86.6771 29.0052 86.6927 28.6823 86.7031 28.4219C86.7135 28.1302 86.724 27.8854 86.7344 27.6875C86.5365 28.0312 86.3438 28.4271 86.1562 28.875C85.9688 29.3333 85.7917 29.8073 85.625 30.2969C85.4583 30.7865 85.3073 31.276 85.1719 31.7656C85.0365 32.2552 84.9167 32.7083 84.8125 33.125C84.7188 33.5521 84.6406 33.9167 84.5781 34.2188C84.526 34.5312 84.5 34.7552 84.5 34.8906ZM105.25 25.2188C106.302 25.2188 107.26 25.1146 108.125 24.9062C108.99 24.6979 109.771 24.4167 110.469 24.0625C111.177 23.7083 111.812 23.2969 112.375 22.8281C112.948 22.349 113.464 21.8385 113.922 21.2969L114.094 24.875C113.76 25.2812 113.354 25.6771 112.875 26.0625C112.406 26.4375 111.891 26.7708 111.328 27.0625C110.766 27.3438 110.172 27.5729 109.547 27.75C108.932 27.9167 108.323 28 107.719 28C107.646 28 107.552 27.9896 107.438 27.9688C107.333 27.9479 107.146 27.9115 106.875 27.8594C106.604 27.8073 106.214 27.7396 105.703 27.6562C105.203 27.5625 104.521 27.4531 103.656 27.3281V27.6094C103.656 29.5052 103.495 31.224 103.172 32.7656C102.859 34.3177 102.438 35.6406 101.906 36.7344C101.375 37.8281 100.766 38.6719 100.078 39.2656C99.3906 39.8594 98.6771 40.1562 97.9375 40.1562C97.3438 40.1562 96.849 40.0104 96.4531 39.7188C96.0573 39.4271 95.7448 39.0312 95.5156 38.5312C95.276 38.0417 95.1094 37.4635 95.0156 36.7969C94.9115 36.1406 94.8594 35.4427 94.8594 34.7031C94.8594 34.276 94.9271 33.7917 95.0625 33.25C95.1979 32.7188 95.3802 32.1562 95.6094 31.5625C95.8385 30.9792 96.099 30.3802 96.3906 29.7656C96.6719 29.1615 96.9635 28.5729 97.2656 28C97.974 26.6667 98.7812 25.2917 99.6875 23.875C99.8021 23.0625 99.9167 22.2292 100.031 21.375C100.156 20.5208 100.307 19.6927 100.484 18.8906C100.672 18.0885 100.901 17.3281 101.172 16.6094C101.453 15.8906 101.807 15.2656 102.234 14.7344C102.672 14.2031 103.193 13.7812 103.797 13.4688C104.401 13.1562 105.13 13 105.984 13C106.62 13 107.214 13.0885 107.766 13.2656C108.318 13.4323 108.802 13.7083 109.219 14.0938C109.635 14.4792 109.964 14.9792 110.203 15.5938C110.443 16.1979 110.562 16.9427 110.562 17.8281C110.562 18.5365 110.458 19.224 110.25 19.8906C110.042 20.5469 109.714 21.1771 109.266 21.7812C108.828 22.3854 108.266 22.9531 107.578 23.4844C106.901 24.0052 106.094 24.474 105.156 24.8906L105.25 25.2188ZM103.281 23.6406C103.906 23.3281 104.443 22.9792 104.891 22.5938C105.349 22.2083 105.74 21.7969 106.062 21.3594C106.396 20.9219 106.667 20.4688 106.875 20C107.083 19.5312 107.25 19.0521 107.375 18.5625C107.427 18.3333 107.458 18.0677 107.469 17.7656C107.49 17.4531 107.458 17.1615 107.375 16.8906C107.302 16.6198 107.167 16.3906 106.969 16.2031C106.781 16.0052 106.516 15.9062 106.172 15.9062C105.786 15.9062 105.448 16.0156 105.156 16.2344C104.865 16.4427 104.609 16.7292 104.391 17.0938C104.182 17.4583 104.005 17.8906 103.859 18.3906C103.724 18.8906 103.609 19.4271 103.516 20C103.432 20.5729 103.37 21.1719 103.328 21.7969C103.297 22.4115 103.281 23.026 103.281 23.6406ZM97.8438 34.8906C97.8438 34.974 97.8594 35.1094 97.8906 35.2969C97.9323 35.4844 97.9948 35.6719 98.0781 35.8594C98.1615 36.0469 98.2708 36.2135 98.4062 36.3594C98.5417 36.5052 98.7083 36.5781 98.9062 36.5781C99.0833 36.5781 99.2292 36.4792 99.3438 36.2812C99.4583 36.0938 99.5521 35.8385 99.625 35.5156C99.6979 35.1927 99.75 34.8281 99.7812 34.4219C99.8125 34.0156 99.8385 33.599 99.8594 33.1719C99.8802 32.7448 99.8906 32.3281 99.8906 31.9219C99.901 31.5156 99.9167 31.151 99.9375 30.8281C99.9688 30.2656 99.9896 29.7865 100 29.3906C100.021 29.0052 100.036 28.6823 100.047 28.4219C100.057 28.1302 100.068 27.8854 100.078 27.6875C99.8802 28.0312 99.6875 28.4271 99.5 28.875C99.3125 29.3333 99.1354 29.8073 98.9688 30.2969C98.8021 30.7865 98.651 31.276 98.5156 31.7656C98.3802 32.2552 98.2604 32.7083 98.1562 33.125C98.0625 33.5521 97.9844 33.9167 97.9219 34.2188C97.8698 34.5312 97.8438 34.7552 97.8438 34.8906ZM121.672 7.5C121.672 8.1875 121.87 8.80208 122.266 9.34375C122.672 9.88542 123.203 10.3906 123.859 10.8594C124.526 11.3177 125.276 11.7552 126.109 12.1719C126.953 12.5885 127.812 13.0208 128.688 13.4688C129.573 13.9062 130.432 14.3802 131.266 14.8906C132.109 15.3906 132.859 15.9583 133.516 16.5938C134.182 17.2292 134.714 17.9479 135.109 18.75C135.516 19.5521 135.719 20.4688 135.719 21.5C135.719 22.4375 135.568 23.3021 135.266 24.0938C134.964 24.875 134.547 25.5781 134.016 26.2031C133.495 26.8281 132.875 27.3802 132.156 27.8594C131.438 28.3385 130.661 28.7344 129.828 29.0469C128.995 29.3594 128.12 29.5938 127.203 29.75C126.286 29.9167 125.365 30 124.438 30C123.135 30 121.87 29.8385 120.641 29.5156C119.411 29.2031 118.318 28.724 117.359 28.0781C116.401 27.4427 115.63 26.6458 115.047 25.6875C114.474 24.7188 114.188 23.5885 114.188 22.2969C114.188 21.6302 114.292 21.0469 114.5 20.5469C114.719 20.0365 114.984 19.6146 115.297 19.2812C115.62 18.9375 115.969 18.6823 116.344 18.5156C116.719 18.3385 117.068 18.25 117.391 18.25C117.724 18.25 118 18.3438 118.219 18.5312C118.448 18.7083 118.562 18.9896 118.562 19.375C118.562 19.5521 118.542 19.7396 118.5 19.9375C118.458 20.1354 118.411 20.3542 118.359 20.5938C118.318 20.8229 118.276 21.0781 118.234 21.3594C118.193 21.6406 118.172 21.9479 118.172 22.2812C118.172 23.0104 118.339 23.6406 118.672 24.1719C119.005 24.7031 119.448 25.1406 120 25.4844C120.552 25.8281 121.188 26.0833 121.906 26.25C122.625 26.4167 123.37 26.5 124.141 26.5C125.047 26.5 125.953 26.3906 126.859 26.1719C127.766 25.9531 128.578 25.6302 129.297 25.2031C130.016 24.776 130.599 24.2552 131.047 23.6406C131.495 23.0156 131.719 22.3021 131.719 21.5C131.719 20.7604 131.516 20.099 131.109 19.5156C130.714 18.9323 130.182 18.3958 129.516 17.9062C128.859 17.4062 128.109 16.9375 127.266 16.5C126.422 16.0625 125.562 15.6198 124.688 15.1719C123.812 14.724 122.953 14.2552 122.109 13.7656C121.266 13.2656 120.51 12.7188 119.844 12.125C119.188 11.5312 118.656 10.8698 118.25 10.1406C117.854 9.40104 117.656 8.5625 117.656 7.625C117.656 6.75 117.865 5.89062 118.281 5.04688C118.708 4.19271 119.344 3.43229 120.188 2.76562C121.042 2.08854 122.104 1.54167 123.375 1.125C124.646 0.708333 126.135 0.5 127.844 0.5C128.927 0.5 129.984 0.661458 131.016 0.984375C132.057 1.30729 132.984 1.76562 133.797 2.35938C134.609 2.95312 135.26 3.66146 135.75 4.48438C136.25 5.30729 136.5 6.21875 136.5 7.21875C136.5 7.8125 136.396 8.42188 136.188 9.04688C135.99 9.67188 135.667 10.3229 135.219 11C134.781 11.6562 134.302 12.1458 133.781 12.4688C133.271 12.7812 132.807 12.9375 132.391 12.9375C132.078 12.9375 131.823 12.849 131.625 12.6719C131.427 12.4844 131.328 12.2083 131.328 11.8438C131.328 11.5729 131.391 11.2552 131.516 10.8906C131.641 10.5156 131.854 10.0885 132.156 9.60938C132.438 9.15104 132.646 8.72396 132.781 8.32812C132.917 7.92188 132.984 7.54688 132.984 7.20312C132.984 6.67188 132.839 6.20833 132.547 5.8125C132.266 5.40625 131.87 5.06771 131.359 4.79688C130.859 4.52604 130.255 4.32292 129.547 4.1875C128.839 4.05208 128.062 3.98438 127.219 3.98438C126.281 3.98438 125.464 4.09375 124.766 4.3125C124.078 4.52083 123.5 4.79688 123.031 5.14062C122.573 5.47396 122.229 5.84896 122 6.26562C121.781 6.68229 121.672 7.09375 121.672 7.5ZM145.094 25.2188C146.146 25.2188 147.104 25.1146 147.969 24.9062C148.833 24.6979 149.615 24.4167 150.312 24.0625C151.021 23.7083 151.656 23.2969 152.219 22.8281C152.792 22.349 153.307 21.8385 153.766 21.2969L153.938 24.875C153.604 25.2812 153.198 25.6771 152.719 26.0625C152.25 26.4375 151.734 26.7708 151.172 27.0625C150.609 27.3438 150.016 27.5729 149.391 27.75C148.776 27.9167 148.167 28 147.562 28C147.49 28 147.396 27.9896 147.281 27.9688C147.177 27.9479 146.99 27.9115 146.719 27.8594C146.448 27.8073 146.057 27.7396 145.547 27.6562C145.047 27.5625 144.365 27.4531 143.5 27.3281V27.6094C143.5 29.5052 143.339 31.224 143.016 32.7656C142.703 34.3177 142.281 35.6406 141.75 36.7344C141.219 37.8281 140.609 38.6719 139.922 39.2656C139.234 39.8594 138.521 40.1562 137.781 40.1562C137.188 40.1562 136.693 40.0104 136.297 39.7188C135.901 39.4271 135.589 39.0312 135.359 38.5312C135.12 38.0417 134.953 37.4635 134.859 36.7969C134.755 36.1406 134.703 35.4427 134.703 34.7031C134.703 34.276 134.771 33.7917 134.906 33.25C135.042 32.7188 135.224 32.1562 135.453 31.5625C135.682 30.9792 135.943 30.3802 136.234 29.7656C136.516 29.1615 136.807 28.5729 137.109 28C137.818 26.6667 138.625 25.2917 139.531 23.875C139.646 23.0625 139.76 22.2292 139.875 21.375C140 20.5208 140.151 19.6927 140.328 18.8906C140.516 18.0885 140.745 17.3281 141.016 16.6094C141.297 15.8906 141.651 15.2656 142.078 14.7344C142.516 14.2031 143.036 13.7812 143.641 13.4688C144.245 13.1562 144.974 13 145.828 13C146.464 13 147.057 13.0885 147.609 13.2656C148.161 13.4323 148.646 13.7083 149.062 14.0938C149.479 14.4792 149.807 14.9792 150.047 15.5938C150.286 16.1979 150.406 16.9427 150.406 17.8281C150.406 18.5365 150.302 19.224 150.094 19.8906C149.885 20.5469 149.557 21.1771 149.109 21.7812C148.672 22.3854 148.109 22.9531 147.422 23.4844C146.745 24.0052 145.938 24.474 145 24.8906L145.094 25.2188ZM143.125 23.6406C143.75 23.3281 144.286 22.9792 144.734 22.5938C145.193 22.2083 145.583 21.7969 145.906 21.3594C146.24 20.9219 146.51 20.4688 146.719 20C146.927 19.5312 147.094 19.0521 147.219 18.5625C147.271 18.3333 147.302 18.0677 147.312 17.7656C147.333 17.4531 147.302 17.1615 147.219 16.8906C147.146 16.6198 147.01 16.3906 146.812 16.2031C146.625 16.0052 146.359 15.9062 146.016 15.9062C145.63 15.9062 145.292 16.0156 145 16.2344C144.708 16.4427 144.453 16.7292 144.234 17.0938C144.026 17.4583 143.849 17.8906 143.703 18.3906C143.568 18.8906 143.453 19.4271 143.359 20C143.276 20.5729 143.214 21.1719 143.172 21.7969C143.141 22.4115 143.125 23.026 143.125 23.6406ZM137.688 34.8906C137.688 34.974 137.703 35.1094 137.734 35.2969C137.776 35.4844 137.839 35.6719 137.922 35.8594C138.005 36.0469 138.115 36.2135 138.25 36.3594C138.385 36.5052 138.552 36.5781 138.75 36.5781C138.927 36.5781 139.073 36.4792 139.188 36.2812C139.302 36.0938 139.396 35.8385 139.469 35.5156C139.542 35.1927 139.594 34.8281 139.625 34.4219C139.656 34.0156 139.682 33.599 139.703 33.1719C139.724 32.7448 139.734 32.3281 139.734 31.9219C139.745 31.5156 139.76 31.151 139.781 30.8281C139.812 30.2656 139.833 29.7865 139.844 29.3906C139.865 29.0052 139.88 28.6823 139.891 28.4219C139.901 28.1302 139.911 27.8854 139.922 27.6875C139.724 28.0312 139.531 28.4271 139.344 28.875C139.156 29.3333 138.979 29.8073 138.812 30.2969C138.646 30.7865 138.495 31.276 138.359 31.7656C138.224 32.2552 138.104 32.7083 138 33.125C137.906 33.5521 137.828 33.9167 137.766 34.2188C137.714 34.5312 137.688 34.7552 137.688 34.8906ZM168.406 24.1719C168.167 24.5052 167.844 24.8958 167.438 25.3438C167.042 25.7917 166.594 26.2188 166.094 26.625C165.594 27.0312 165.057 27.375 164.484 27.6562C163.911 27.9375 163.339 28.0781 162.766 28.0781C162.078 28.0781 161.505 27.8594 161.047 27.4219C160.589 26.974 160.193 26.3281 159.859 25.4844C159.609 25.776 159.302 26.0729 158.938 26.375C158.573 26.6771 158.172 26.9531 157.734 27.2031C157.307 27.4427 156.859 27.6406 156.391 27.7969C155.922 27.9531 155.453 28.0312 154.984 28.0312C154.484 28.0312 153.995 27.9323 153.516 27.7344C153.047 27.526 152.63 27.2344 152.266 26.8594C151.901 26.474 151.609 26.0104 151.391 25.4688C151.172 24.9167 151.062 24.2969 151.062 23.6094C151.062 22.8281 151.172 22.026 151.391 21.2031C151.609 20.3802 151.911 19.5781 152.297 18.7969C152.682 18.0052 153.135 17.2604 153.656 16.5625C154.188 15.8646 154.766 15.2552 155.391 14.7344C156.016 14.2135 156.672 13.8021 157.359 13.5C158.057 13.1875 158.766 13.0312 159.484 13.0312C159.724 13.0312 159.911 13.0781 160.047 13.1719C160.182 13.2656 160.292 13.375 160.375 13.5C160.469 13.6146 160.557 13.7292 160.641 13.8438C160.724 13.9583 160.828 14.0417 160.953 14.0938C161.078 14.1458 161.203 14.1823 161.328 14.2031C161.464 14.2135 161.599 14.2188 161.734 14.2188C161.849 14.2188 161.964 14.2188 162.078 14.2188C162.203 14.2083 162.323 14.2031 162.438 14.2031C162.594 14.2031 162.74 14.2188 162.875 14.25C163.01 14.2812 163.13 14.349 163.234 14.4531C163.339 14.5573 163.417 14.7031 163.469 14.8906C163.531 15.0781 163.562 15.3333 163.562 15.6562C163.562 16.1562 163.51 16.7135 163.406 17.3281C163.302 17.9323 163.188 18.5573 163.062 19.2031C162.938 19.8385 162.823 20.4792 162.719 21.125C162.615 21.7604 162.562 22.3646 162.562 22.9375C162.562 23.4271 162.604 23.8125 162.688 24.0938C162.781 24.3646 162.974 24.5 163.266 24.5C163.484 24.5 163.714 24.4479 163.953 24.3438C164.193 24.2292 164.432 24.0833 164.672 23.9062C164.922 23.7292 165.167 23.5312 165.406 23.3125C165.656 23.0833 165.891 22.849 166.109 22.6094C166.62 22.0469 167.135 21.4115 167.656 20.7031L168.406 24.1719ZM155.062 22.9375C155.062 23.1979 155.078 23.4531 155.109 23.7031C155.151 23.9427 155.219 24.1615 155.312 24.3594C155.406 24.5469 155.531 24.7031 155.688 24.8281C155.844 24.9427 156.042 25 156.281 25C156.667 25 157.016 24.8333 157.328 24.5C157.641 24.1667 157.911 23.7656 158.141 23.2969C158.37 22.8281 158.552 22.3438 158.688 21.8438C158.833 21.3438 158.927 20.9271 158.969 20.5938L159.922 16C159.495 16 159.078 16.1094 158.672 16.3281C158.266 16.5365 157.88 16.8229 157.516 17.1875C157.161 17.5521 156.833 17.9688 156.531 18.4375C156.229 18.9062 155.969 19.401 155.75 19.9219C155.531 20.4323 155.359 20.9479 155.234 21.4688C155.12 21.9896 155.062 22.4792 155.062 22.9375ZM171.391 28C170.432 28 169.589 27.8229 168.859 27.4688C168.141 27.1146 167.536 26.6406 167.047 26.0469C166.557 25.4531 166.188 24.7656 165.938 23.9844C165.688 23.2031 165.562 22.3906 165.562 21.5469C165.562 20.9427 165.625 20.3125 165.75 19.6562C165.875 19 166.057 18.3594 166.297 17.7344C166.547 17.099 166.849 16.4948 167.203 15.9219C167.568 15.349 167.984 14.849 168.453 14.4219C168.932 13.9844 169.464 13.6406 170.047 13.3906C170.63 13.1302 171.271 13 171.969 13C172.562 13 173.109 13.0938 173.609 13.2812C174.12 13.4583 174.552 13.7083 174.906 14.0312C175.271 14.3542 175.552 14.7396 175.75 15.1875C175.958 15.625 176.062 16.099 176.062 16.6094C176.062 16.9635 176.016 17.3125 175.922 17.6562C175.828 18 175.688 18.3125 175.5 18.5938C175.323 18.8646 175.104 19.0833 174.844 19.25C174.583 19.4167 174.292 19.5 173.969 19.5C173.479 19.5 173.156 19.3698 173 19.1094C172.854 18.849 172.781 18.4896 172.781 18.0312C172.781 17.8438 172.786 17.6458 172.797 17.4375C172.818 17.2292 172.828 17.0417 172.828 16.875C172.828 16.625 172.802 16.4167 172.75 16.25C172.698 16.0833 172.583 16 172.406 16C171.979 16 171.615 16.1042 171.312 16.3125C171.01 16.5104 170.75 16.776 170.531 17.1094C170.323 17.4323 170.156 17.8021 170.031 18.2188C169.906 18.625 169.807 19.0312 169.734 19.4375C169.661 19.8438 169.615 20.2344 169.594 20.6094C169.573 20.974 169.562 21.2812 169.562 21.5312C169.562 21.9062 169.594 22.2969 169.656 22.7031C169.729 23.1094 169.859 23.4844 170.047 23.8281C170.234 24.1615 170.49 24.4427 170.812 24.6719C171.135 24.8906 171.552 25 172.062 25C172.562 25 173.115 24.849 173.719 24.5469C174.323 24.2344 174.927 23.8438 175.531 23.375C176.146 22.9062 176.729 22.3906 177.281 21.8281C177.833 21.2656 178.307 20.7344 178.703 20.2344L179.781 22.0469C179 23.1615 178.156 24.1562 177.25 25.0312C176.865 25.4062 176.443 25.7708 175.984 26.125C175.536 26.4792 175.062 26.7969 174.562 27.0781C174.073 27.349 173.557 27.5729 173.016 27.75C172.484 27.9167 171.943 28 171.391 28ZM183.344 28C182.365 28 181.505 27.8229 180.766 27.4688C180.036 27.1146 179.427 26.6406 178.938 26.0469C178.448 25.4427 178.078 24.75 177.828 23.9688C177.589 23.1771 177.469 22.349 177.469 21.4844C177.469 20.901 177.526 20.2865 177.641 19.6406C177.755 18.9844 177.927 18.3438 178.156 17.7188C178.396 17.0938 178.693 16.5 179.047 15.9375C179.401 15.3646 179.812 14.8646 180.281 14.4375C180.76 14 181.292 13.6562 181.875 13.4062C182.469 13.1458 183.125 13.0156 183.844 13.0156C184.427 13.0156 184.969 13.1094 185.469 13.2969C185.969 13.4844 186.401 13.75 186.766 14.0938C187.141 14.4271 187.432 14.8333 187.641 15.3125C187.849 15.7917 187.953 16.3281 187.953 16.9219C187.953 17.5677 187.792 18.2135 187.469 18.8594C187.156 19.5052 186.719 20.1146 186.156 20.6875C185.594 21.2604 184.922 21.7708 184.141 22.2188C183.37 22.6667 182.531 23.0156 181.625 23.2656C181.781 23.5469 181.932 23.7812 182.078 23.9688C182.234 24.1562 182.391 24.3021 182.547 24.4062C182.703 24.5104 182.865 24.5833 183.031 24.625C183.208 24.6667 183.396 24.6875 183.594 24.6875C184.219 24.6875 184.875 24.5625 185.562 24.3125C186.26 24.0625 186.938 23.75 187.594 23.375C188.25 23 188.87 22.5938 189.453 22.1562C190.036 21.7083 190.531 21.2865 190.938 20.8906L192.953 22.9844C192.036 23.9323 191.062 24.7708 190.031 25.5C189.583 25.8125 189.099 26.1198 188.578 26.4219C188.068 26.724 187.526 26.9948 186.953 27.2344C186.391 27.4635 185.802 27.651 185.188 27.7969C184.583 27.9323 183.969 28 183.344 28ZM181.266 20.6562C181.641 20.6562 182.047 20.5625 182.484 20.375C182.932 20.1771 183.344 19.9271 183.719 19.625C184.104 19.3229 184.427 18.9948 184.688 18.6406C184.948 18.2865 185.078 17.9427 185.078 17.6094C185.078 17.1406 184.99 16.7552 184.812 16.4531C184.646 16.151 184.438 16 184.188 16C183.74 16 183.354 16.0833 183.031 16.25C182.719 16.4167 182.453 16.6354 182.234 16.9062C182.026 17.1667 181.854 17.4688 181.719 17.8125C181.594 18.1458 181.495 18.4844 181.422 18.8281C181.359 19.1719 181.318 19.5052 181.297 19.8281C181.276 20.151 181.266 20.4271 181.266 20.6562Z" fill="#EF7577"/>
</svg>
