<svg width="18" height="18" viewBox="0 0 18 18" fill="none" xmlns="http://www.w3.org/2000/svg">
<path d="M13.5 13.5C15.1569 13.5 16.5 10.8137 16.5 7.5C16.5 4.18629 15.1569 1.5 13.5 1.5C11.8431 1.5 10.5 4.18629 10.5 7.5C10.5 10.8137 11.8431 13.5 13.5 13.5Z" stroke="white" stroke-linecap="round" stroke-linejoin="round"/>
<path d="M13.5 1.5C11.1728 1.5 6.34875 3.2835 3.57825 4.3905C2.30925 4.8975 1.5 6.1335 1.5 7.5C1.5 8.8665 2.31 10.1025 3.57825 10.6095C6.34875 11.7165 11.1728 13.5 13.5 13.5M8.25 16.5L6.79275 15.6975C6.01476 15.2669 5.3837 14.6131 4.98102 13.8203C4.57835 13.0275 4.42255 12.1322 4.53375 11.25" stroke="white" stroke-linecap="round" stroke-linejoin="round"/>
</svg>
