<svg width="32" height="32" viewBox="0 0 32 32" fill="none" xmlns="http://www.w3.org/2000/svg">
<rect width="32" height="32" rx="4" fill="#FF1B1B" fill-opacity="0.1"/>
<path d="M24.7738 22C25.5238 22 26.1188 21.529 26.6538 20.87C27.7498 19.52 25.9508 18.44 25.2648 17.913C24.5678 17.376 23.7888 17.071 22.9998 17M21.9998 15C22.6628 15 23.2987 14.7366 23.7675 14.2678C24.2364 13.7989 24.4998 13.163 24.4998 12.5C24.4998 11.837 24.2364 11.2011 23.7675 10.7322C23.2987 10.2634 22.6628 10 21.9998 10M7.22578 22C6.47578 22 5.88078 21.529 5.34578 20.87C4.24978 19.52 6.04878 18.44 6.73478 17.913C7.43178 17.376 8.20978 17.07 8.99978 17M9.49978 15C8.83674 15 8.20086 14.7366 7.73201 14.2678C7.26317 13.7989 6.99978 13.163 6.99978 12.5C6.99978 11.837 7.26317 11.2011 7.73201 10.7322C8.20086 10.2634 8.83674 10 9.49978 10M12.0838 19.111C11.0618 19.743 8.38278 21.033 10.0138 22.647C10.8128 23.436 11.6998 24 12.8168 24H19.1848C20.3018 24 21.1888 23.436 21.9858 22.647C23.6178 21.033 20.9388 19.743 19.9168 19.111C18.7396 18.385 17.3838 18.0005 16.0008 18.0005C14.6177 18.0005 13.2619 18.385 12.0848 19.111M19.4998 11.5C19.4998 11.9596 19.4093 12.4148 19.2334 12.8394C19.0575 13.264 18.7997 13.6499 18.4747 13.9749C18.1496 14.2999 17.7638 14.5577 17.3392 14.7336C16.9145 14.9095 16.4594 15 15.9998 15C15.5402 15 15.085 14.9095 14.6604 14.7336C14.2357 14.5577 13.8499 14.2999 13.5249 13.9749C13.1999 13.6499 12.9421 13.264 12.7662 12.8394C12.5903 12.4148 12.4998 11.9596 12.4998 11.5C12.4998 10.5717 12.8685 9.6815 13.5249 9.02513C14.1813 8.36875 15.0715 8 15.9998 8C16.928 8 17.8183 8.36875 18.4747 9.02513C19.131 9.6815 19.4998 10.5717 19.4998 11.5Z" stroke="#FF1B1B" stroke-linecap="round" stroke-linejoin="round"/>
</svg>
