<svg width="24" height="24" viewBox="0 0 24 24" fill="none" xmlns="http://www.w3.org/2000/svg">
<rect width="24" height="24" rx="4" fill="#A01BFF" fill-opacity="0.1"/>
<path d="M9.75 12C9.75 12.5967 9.98705 13.169 10.409 13.591C10.831 14.0129 11.4033 14.25 12 14.25C12.5967 14.25 13.169 14.0129 13.591 13.591C14.0129 13.169 14.25 12.5967 14.25 12" stroke="#8F75EF" stroke-linecap="round"/>
<path d="M6.375 9.53325C6.375 9.0825 6.375 8.85675 6.4395 8.6445C6.504 8.43225 6.6285 8.244 6.879 7.869L6.984 7.7115C7.4205 7.05675 7.638 6.72975 7.97025 6.55275C8.30175 6.375 8.69475 6.375 9.48075 6.375H14.5193C15.3053 6.375 15.6982 6.375 16.0297 6.55275C16.3612 6.72975 16.5795 7.05675 17.0153 7.71075L17.121 7.869C17.3715 8.244 17.496 8.4315 17.5605 8.6445C17.625 8.85675 17.625 9.0825 17.625 9.53325V14.625C17.625 16.0395 17.625 16.746 17.1855 17.1855C16.746 17.625 16.0395 17.625 14.625 17.625H9.375C7.9605 17.625 7.254 17.625 6.8145 17.1855C6.375 16.746 6.375 16.0395 6.375 14.625V9.53325Z" stroke="#8F75EF"/>
<path d="M6.375 10.125H17.625" stroke="#8F75EF" stroke-linecap="round"/>
</svg>
