<svg width="24" height="24" viewBox="0 0 24 24" fill="none" xmlns="http://www.w3.org/2000/svg">
<rect width="24" height="24" rx="4" fill="#FF1B1B" fill-opacity="0.1"/>
<path d="M18.5803 16.5C19.1428 16.5 19.5891 16.1468 19.9903 15.6525C20.8123 14.64 19.4631 13.83 18.9486 13.4348C18.4258 13.032 17.8416 12.8033 17.2498 12.75M16.4998 11.25C16.9971 11.25 17.474 11.0525 17.8257 10.7008C18.1773 10.3492 18.3748 9.87228 18.3748 9.375C18.3748 8.87772 18.1773 8.40081 17.8257 8.04917C17.474 7.69754 16.9971 7.5 16.4998 7.5M5.41934 16.5C4.85684 16.5 4.41059 16.1468 4.00934 15.6525C3.18734 14.64 4.53659 13.83 5.05109 13.4348C5.57384 13.032 6.15734 12.8025 6.74984 12.75M7.12484 11.25C6.62756 11.25 6.15064 11.0525 5.79901 10.7008C5.44738 10.3492 5.24984 9.87228 5.24984 9.375C5.24984 8.87772 5.44738 8.40081 5.79901 8.04917C6.15064 7.69754 6.62756 7.5 7.12484 7.5M9.06284 14.3333C8.29634 14.8073 6.28709 15.7747 7.51034 16.9852C8.10959 17.577 8.77484 18 9.61259 18H14.3886C15.2263 18 15.8916 17.577 16.4893 16.9852C17.7133 15.7747 15.7041 14.8073 14.9376 14.3333C14.0547 13.7888 13.0379 13.5004 12.0006 13.5004C10.9633 13.5004 9.94646 13.7888 9.06359 14.3333M14.6248 8.625C14.6248 8.96972 14.5569 9.31106 14.425 9.62954C14.2931 9.94802 14.0997 10.2374 13.856 10.4812C13.6122 10.7249 13.3229 10.9183 13.0044 11.0502C12.6859 11.1821 12.3446 11.25 11.9998 11.25C11.6551 11.25 11.3138 11.1821 10.9953 11.0502C10.6768 10.9183 10.3874 10.7249 10.1437 10.4812C9.89993 10.2374 9.70657 9.94802 9.57465 9.62954C9.44273 9.31106 9.37484 8.96972 9.37484 8.625C9.37484 7.92881 9.6514 7.26113 10.1437 6.76884C10.636 6.27656 11.3036 6 11.9998 6C12.696 6 13.3637 6.27656 13.856 6.76884C14.3483 7.26113 14.6248 7.92881 14.6248 8.625Z" stroke="#FF1B1B" stroke-linecap="round" stroke-linejoin="round"/>
</svg>
