<svg width="32" height="32" viewBox="0 0 32 32" fill="none" xmlns="http://www.w3.org/2000/svg">
<rect width="32" height="32" rx="4" fill="#00AB44" fill-opacity="0.15"/>
<path d="M24.2391 10.4095L15.6141 7.53446C15.5401 7.50967 15.4599 7.50967 15.3859 7.53446L6.7609 10.4095C6.6895 10.4334 6.62741 10.4791 6.5834 10.5402C6.53939 10.6013 6.51568 10.6747 6.51562 10.75V17.9375C6.51562 18.0328 6.55349 18.1242 6.62088 18.1916C6.68828 18.259 6.77969 18.2968 6.875 18.2968C6.97031 18.2968 7.06172 18.259 7.12912 18.1916C7.19651 18.1242 7.23438 18.0328 7.23438 17.9375V11.2486L11.1767 12.563C10.69 13.2168 10.3578 13.9725 10.2052 14.7732C10.0527 15.5739 10.0837 16.3987 10.2959 17.1857C10.5081 17.9727 10.8961 18.7013 11.4305 19.3167C11.965 19.9322 12.632 20.4184 13.3815 20.7388C11.5073 21.2545 9.87758 22.4575 8.73027 24.2113C8.68275 24.291 8.66795 24.3861 8.68896 24.4765C8.70998 24.567 8.76518 24.6458 8.843 24.6964C8.92082 24.747 9.01522 24.7656 9.10642 24.7482C9.19762 24.7308 9.27854 24.6787 9.33223 24.603C10.7536 22.4225 13.0023 21.1718 15.5 21.1718C17.9977 21.1718 20.2464 22.4225 21.6678 24.6021C21.7215 24.6778 21.8024 24.7299 21.8936 24.7473C21.9848 24.7647 22.0792 24.7461 22.157 24.6955C22.2348 24.6449 22.29 24.5661 22.311 24.4756C22.332 24.3852 22.3172 24.2901 22.2697 24.2104C21.1269 22.4566 19.4927 21.2536 17.6185 20.7379C18.368 20.4175 19.035 19.9313 19.5695 19.3158C20.1039 18.7004 20.4919 17.9718 20.7041 17.1848C20.9163 16.3978 20.9473 15.573 20.7948 14.7723C20.6422 13.9716 20.31 13.2159 19.8233 12.5621L24.2391 11.0896C24.3104 11.0655 24.3723 11.0197 24.4161 10.9587C24.46 10.8976 24.4836 10.8243 24.4836 10.7491C24.4836 10.6739 24.46 10.6006 24.4161 10.5395C24.3723 10.4784 24.3104 10.4326 24.2391 10.4086V10.4095ZM20.1719 15.7812C20.1719 16.5309 19.9915 17.2695 19.646 17.9348C19.3004 18.6001 18.7999 19.1725 18.1866 19.6036C17.5732 20.0346 16.8652 20.3118 16.1222 20.4117C15.3792 20.5115 14.6231 20.4311 13.9178 20.1772C13.2124 19.9233 12.5785 19.5034 12.0696 18.9529C11.5607 18.4025 11.1917 17.7376 10.9938 17.0146C10.7959 16.2915 10.775 15.5314 10.9327 14.7985C11.0904 14.0656 11.4222 13.3815 11.9 12.8038L15.3859 13.9655C15.4599 13.9906 15.5401 13.9906 15.6141 13.9655L19.1 12.8038C19.7938 13.6408 20.173 14.6941 20.1719 15.7812ZM15.5 13.2458L8.01152 10.75L15.5 8.25411L22.9885 10.75L15.5 13.2458Z" fill="#00AB44"/>
</svg>
