<svg width="32" height="32" viewBox="0 0 32 32" fill="none" xmlns="http://www.w3.org/2000/svg">
<rect width="32" height="32" rx="4" fill="#AB7A00" fill-opacity="0.15"/>
<path fill-rule="evenodd" clip-rule="evenodd" d="M25.455 10.4161C25.55 10.5603 25.5924 10.7329 25.5749 10.9047C25.5574 11.0765 25.4811 11.237 25.359 11.3591L16.166 20.5511C16.072 20.6451 15.9546 20.7124 15.826 20.7461L11.997 21.7461C11.8704 21.7791 11.7374 21.7784 11.6112 21.7441C11.485 21.7099 11.3699 21.6432 11.2774 21.5507C11.1849 21.4582 11.1182 21.3431 11.0839 21.2169C11.0497 21.0906 11.049 20.9576 11.082 20.8311L12.082 17.0031C12.1119 16.8884 12.1669 16.7819 12.243 16.6911L21.47 7.47007C21.6106 7.32962 21.8013 7.25073 22 7.25073C22.1988 7.25073 22.3894 7.32962 22.53 7.47007L25.359 10.2981C25.394 10.3349 25.4261 10.3744 25.455 10.4161ZM23.768 10.8281L22 9.06107L13.482 17.5791L12.857 19.9721L15.25 19.3471L23.768 10.8281Z" fill="#AB7A00" stroke="#F2EBD9" stroke-width="0.5"/>
<path d="M23.641 22.1601C23.9143 19.824 24.0016 17.47 23.902 15.1201C23.8997 15.0647 23.9088 15.0094 23.929 14.9578C23.9491 14.9061 23.9798 14.8592 24.019 14.8201L25.003 13.8361C25.0299 13.809 25.064 13.7903 25.1013 13.7822C25.1385 13.7741 25.1774 13.7769 25.2131 13.7903C25.2488 13.8038 25.2798 13.8272 25.3025 13.8578C25.3252 13.8885 25.3386 13.925 25.341 13.9631C25.5257 16.7543 25.4554 19.5566 25.131 22.3351C24.895 24.3571 23.271 25.9421 21.258 26.1671C17.7633 26.5538 14.2367 26.5538 10.742 26.1671C8.73001 25.9421 7.10501 24.3571 6.86901 22.3351C6.45512 18.7905 6.45512 15.2097 6.86901 11.6651C7.10501 9.64308 8.72901 8.05808 10.742 7.83308C13.3945 7.54012 16.0667 7.46888 18.731 7.62008C18.7691 7.62281 18.8057 7.63642 18.8363 7.65929C18.867 7.68215 18.8904 7.71332 18.9039 7.7491C18.9173 7.78487 18.9203 7.82376 18.9123 7.86115C18.9044 7.89854 18.8859 7.93287 18.859 7.96008L17.866 8.95208C17.8272 8.99092 17.7808 9.02136 17.7297 9.04149C17.6786 9.06162 17.6239 9.07101 17.569 9.06908C15.3458 8.99293 13.1199 9.07815 10.909 9.32408C10.263 9.39558 9.65986 9.6828 9.19717 10.1393C8.73447 10.5959 8.43919 11.195 8.35901 11.8401C7.95787 15.2684 7.95787 18.7318 8.35901 22.1601C8.43919 22.8051 8.73447 23.4043 9.19717 23.8608C9.65986 24.3174 10.263 24.6046 10.909 24.6761C14.264 25.0511 17.736 25.0511 21.092 24.6761C21.7381 24.6046 22.3412 24.3174 22.8039 23.8608C23.2666 23.4043 23.5608 22.8051 23.641 22.1601Z" fill="#AB7A00" stroke="#F2EBD9" stroke-width="0.5"/>
</svg>
