<svg width="19" height="20" viewBox="0 0 19 20" fill="none" xmlns="http://www.w3.org/2000/svg">
<g clip-path="url(#clip0_38_772)">
<path opacity="0.3" d="M3.95817 8.25046L10.1253 2.08337H15.0415V6.99962L8.87442 13.1667L3.95817 8.25046ZM13.2603 4.85421C13.5227 4.85421 13.7744 4.74995 13.96 4.56436C14.1456 4.37878 14.2498 4.12708 14.2498 3.86462C14.2498 3.60217 14.1456 3.35047 13.96 3.16488C13.7744 2.9793 13.5227 2.87504 13.2603 2.87504C12.9978 2.87504 12.7461 2.9793 12.5605 3.16488C12.3749 3.35047 12.2707 3.60217 12.2707 3.86462C12.2707 4.12708 12.3749 4.37878 12.5605 4.56436C12.7461 4.74995 12.9978 4.85421 13.2603 4.85421Z" fill="#9D9D9D"/>
<path d="M8.16748 16.4179C8.558 16.8085 9.19117 16.8085 9.58169 16.4179L15.5054 10.4942C15.9186 10.0811 16.625 10.3737 16.625 10.958C16.625 11.3776 16.4588 11.7813 16.1579 12.0742L9.99083 18.2413C9.37333 18.8588 8.36792 18.8588 7.75042 18.2413L2.83417 13.3251C2.46358 12.9545 2.3154 12.4442 2.38962 11.9618C2.47362 11.416 3.15075 11.4012 3.54127 11.7917L8.16748 16.4179Z" fill="#9D9D9D"/>
<path d="M9.99083 14.2829C9.68208 14.5917 9.27833 14.75 8.87458 14.75C8.47083 14.75 8.06708 14.5917 7.75833 14.2829L2.84208 9.36667C2.22458 8.74917 2.22458 7.74375 2.84208 7.12625L9.00917 0.959167C9.30208 0.66625 9.70583 0.5 10.1254 0.5H15.0417C15.9125 0.5 16.625 1.2125 16.625 2.08333V6.99958C16.625 7.41917 16.4588 7.82292 16.1579 8.11583L9.99083 14.2829ZM15.0417 3.08333C15.0417 2.53105 14.594 2.08333 14.0417 2.08333H10.9538C10.4234 2.08333 9.9147 2.29405 9.53963 2.66912L4.66544 7.54331C4.27492 7.93383 4.27492 8.567 4.66544 8.95752L8.16748 12.4596C8.558 12.8501 9.19117 12.8501 9.58169 12.4596L14.4559 7.58537C14.831 7.2103 15.0417 6.70159 15.0417 6.17116V3.08333Z" fill="#9D9D9D"/>
<path d="M13.2604 4.85417C12.7139 4.85417 12.2708 4.41112 12.2708 3.86458C12.2708 3.31805 12.7139 2.875 13.2604 2.875C13.8069 2.875 14.25 3.31805 14.25 3.86458C14.25 4.41112 13.8069 4.85417 13.2604 4.85417Z" fill="#9D9D9D"/>
</g>
<defs>
<clipPath id="clip0_38_772">
<rect width="19" height="19" fill="white" transform="matrix(-1 0 0 1 19 0.5)"/>
</clipPath>
</defs>
</svg>
