<svg width="32" height="32" viewBox="0 0 32 32" fill="none" xmlns="http://www.w3.org/2000/svg">
<rect width="32" height="32" rx="4" fill="#00AB44" fill-opacity="0.1"/>
<path d="M21.5 9C21.8978 9 22.2794 9.15804 22.5607 9.43934C22.842 9.72064 23 10.1022 23 10.5C23 10.8978 22.842 11.2794 22.5607 11.5607C22.2794 11.842 21.8978 12 21.5 12C21.1022 12 20.7206 11.842 20.4393 11.5607C20.158 11.2794 20 10.8978 20 10.5C20 10.1022 20.158 9.72064 20.4393 9.43934C20.7206 9.15804 21.1022 9 21.5 9Z" stroke="#00AB44" stroke-linecap="round" stroke-linejoin="round"/>
<path d="M6.77389 15.144C5.77089 16.264 5.74989 17.954 6.66989 19.144C8.4569 21.4638 10.5361 23.543 12.8559 25.33C14.0459 26.25 15.7359 26.229 16.8559 25.226C19.8835 22.5178 22.7284 19.6121 25.3719 16.528C25.6388 16.2212 25.8031 15.8387 25.8419 15.434C26.0059 13.638 26.3449 8.46398 24.9399 7.05998C23.5349 5.65598 18.3619 5.99398 16.5659 6.15898C16.1611 6.19776 15.7786 6.36209 15.4719 6.62898C12.3878 9.27219 9.48207 12.1167 6.77389 15.144Z" stroke="#00AB44" stroke-linecap="round" stroke-linejoin="round"/>
<path d="M17.7878 16.3671C17.8098 15.9651 17.9218 15.2321 17.3118 14.6741M17.3118 14.6741C17.0791 14.4718 16.808 14.3185 16.5148 14.2231C15.2578 13.7801 13.7148 15.2621 14.8068 16.6191C15.3938 17.3491 15.8468 17.5731 15.8028 18.4011C15.7728 18.9831 15.2008 19.5921 14.4468 19.8241C13.7918 20.0261 13.0688 19.7591 12.6118 19.2481C12.0528 18.6241 12.1098 18.0361 12.1048 17.7801M17.3118 14.6741L17.9998 13.9861M12.6598 19.3261L12.0068 19.9791" stroke="#00AB44" stroke-linecap="round" stroke-linejoin="round"/>
</svg>
