<svg width="32" height="32" viewBox="0 0 32 32" fill="none" xmlns="http://www.w3.org/2000/svg">
<rect width="32" height="32" rx="4" fill="#A01BFF" fill-opacity="0.1"/>
<path d="M13 16C13 16.7956 13.3161 17.5587 13.8787 18.1213C14.4413 18.6839 15.2044 19 16 19C16.7956 19 17.5587 18.6839 18.1213 18.1213C18.6839 17.5587 19 16.7956 19 16" stroke="#8F75EF" stroke-linecap="round"/>
<path d="M8.5 12.711C8.5 12.11 8.5 11.809 8.586 11.526C8.672 11.243 8.838 10.992 9.172 10.492L9.312 10.282C9.894 9.409 10.184 8.973 10.627 8.737C11.069 8.5 11.593 8.5 12.641 8.5H19.359C20.407 8.5 20.931 8.5 21.373 8.737C21.815 8.973 22.106 9.409 22.687 10.281L22.828 10.492C23.162 10.992 23.328 11.242 23.414 11.526C23.5 11.809 23.5 12.11 23.5 12.711V19.5C23.5 21.386 23.5 22.328 22.914 22.914C22.328 23.5 21.386 23.5 19.5 23.5H12.5C10.614 23.5 9.672 23.5 9.086 22.914C8.5 22.328 8.5 21.386 8.5 19.5V12.711Z" stroke="#8F75EF"/>
<path d="M8.5 13.5H23.5" stroke="#8F75EF" stroke-linecap="round"/>
</svg>
