<svg width="32" height="32" viewBox="0 0 32 32" fill="none" xmlns="http://www.w3.org/2000/svg">
<rect width="32" height="32" rx="4" fill="#AB7A00" fill-opacity="0.15"/>
<path d="M22 23.5C21.4013 23.5 20.8727 23.3127 20.414 22.938C19.9553 22.5633 19.6703 22.084 19.559 21.5H14C13.028 21.5 12.2017 21.1597 11.521 20.479C10.8403 19.7983 10.5 18.972 10.5 18C10.5 17.028 10.8403 16.2017 11.521 15.521C12.2017 14.8403 13.028 14.5 14 14.5H16C16.6873 14.5 17.276 14.255 17.766 13.765C18.2553 13.2743 18.5 12.6847 18.5 11.996C18.5 11.3073 18.2553 10.7193 17.766 10.232C17.2767 9.74467 16.688 9.50067 16 9.5H10.44C10.3267 10.0833 10.0413 10.5627 9.584 10.938C9.12667 11.3133 8.59867 11.5007 8 11.5C7.30533 11.5 6.71533 11.2573 6.23 10.772C5.74333 10.286 5.5 9.696 5.5 9.002C5.5 8.308 5.74333 7.71767 6.23 7.231C6.71667 6.74433 7.30667 6.50067 8 6.5C8.59867 6.5 9.12667 6.68767 9.584 7.063C10.0407 7.43767 10.3263 7.91667 10.441 8.5H16C16.972 8.5 17.7983 8.84033 18.479 9.521C19.1597 10.2017 19.5 11.028 19.5 12C19.5 12.972 19.1597 13.7983 18.479 14.479C17.7983 15.1597 16.972 15.5 16 15.5H14C13.3127 15.5 12.724 15.7453 12.234 16.236C11.7447 16.726 11.5 17.3153 11.5 18.004C11.5 18.6927 11.745 19.2807 12.235 19.768C12.7243 20.256 13.3127 20.5 14 20.5H19.56C19.6733 19.9167 19.9587 19.4377 20.416 19.063C20.8733 18.6883 21.4013 18.5007 22 18.5C22.6947 18.5 23.2847 18.743 23.77 19.229C24.2567 19.7143 24.5 20.304 24.5 20.998C24.5 21.692 24.2567 22.2823 23.77 22.769C23.2833 23.2557 22.6933 23.4993 22 23.5ZM8 10.5C8.41133 10.5 8.76433 10.353 9.059 10.059C9.353 9.76433 9.5 9.41133 9.5 9C9.5 8.58867 9.353 8.23567 9.059 7.941C8.76433 7.647 8.41133 7.5 8 7.5C7.58867 7.5 7.23567 7.647 6.941 7.941C6.647 8.23567 6.5 8.58867 6.5 9C6.5 9.41133 6.647 9.76433 6.941 10.059C7.23567 10.353 7.58867 10.5 8 10.5Z" fill="#AB7A00"/>
</svg>
