<svg width="32" height="32" viewBox="0 0 32 32" fill="none" xmlns="http://www.w3.org/2000/svg">
<rect width="32" height="32" rx="4" fill="#796BEB" fill-opacity="0.1"/>
<path d="M14.6236 15.998C15.2603 16.0056 15.8922 15.8868 16.4826 15.6484C17.073 15.41 17.6103 15.0568 18.0632 14.6093C18.5161 14.1618 18.8757 13.6288 19.1212 13.0412C19.3666 12.4537 19.493 11.8233 19.493 11.1866C19.493 10.5498 19.3666 9.91943 19.1212 9.33189C18.8757 8.74435 18.5161 8.21137 18.0632 7.76383C17.6103 7.31629 17.073 6.96309 16.4826 6.7247C15.8922 6.48632 15.2603 6.36749 14.6236 6.3751C13.3575 6.39023 12.1484 6.90382 11.2584 7.8045C10.3684 8.70518 9.86933 9.92036 9.86933 11.1866C9.86933 12.4528 10.3684 13.668 11.2584 14.5686C12.1484 15.4693 13.3575 15.9829 14.6236 15.998ZM14.6236 14.623C14.1683 14.6295 13.7161 14.5454 13.2936 14.3755C12.871 14.2057 12.4864 13.9536 12.1621 13.6339C11.8378 13.3141 11.5803 12.9331 11.4045 12.513C11.2287 12.0929 11.1382 11.642 11.1382 11.1866C11.1382 10.7311 11.2287 10.2803 11.4045 9.86014C11.5803 9.44 11.8378 9.05899 12.1621 8.73925C12.4864 8.41951 12.871 8.1674 13.2936 7.9976C13.7161 7.82779 14.1683 7.74366 14.6236 7.7501C15.5266 7.76287 16.3883 8.13055 17.0223 8.77362C17.6564 9.4167 18.0118 10.2835 18.0118 11.1866C18.0118 12.0896 17.6564 12.9564 17.0223 13.5995C16.3883 14.2426 15.5266 14.6103 14.6236 14.623ZM8.78125 18.748C8.50775 18.748 8.24544 18.8567 8.05205 19.0501C7.85865 19.2435 7.75 19.5058 7.75 19.7793V20.1223C7.75 21.1343 8.39625 22.1491 9.64612 22.9445C10.8884 23.7352 12.6464 24.2467 14.6236 24.2467C15.5786 24.2467 16.4819 24.127 17.3014 23.9146L18.4056 25.0187C17.2664 25.4065 15.9787 25.6217 14.6236 25.6217C12.425 25.6217 10.4024 25.0558 8.90775 24.1043C7.42138 23.159 6.375 21.7682 6.375 20.1223V19.7786C6.375 19.1404 6.62851 18.5284 7.07977 18.0771C7.53103 17.6259 8.14307 17.3723 8.78125 17.3723H15.3352C15.3191 17.4851 15.3111 17.5997 15.3111 17.7161V18.7473L8.78125 18.748ZM25.8292 23.0071C26.1384 22.6977 26.3121 22.2782 26.3121 21.8408C26.3121 21.4033 26.1384 20.9838 25.8292 20.6744L21.8994 16.7447C21.6416 16.4868 21.292 16.3419 20.9273 16.3418H17.7167C17.352 16.3418 17.0023 16.4867 16.7444 16.7445C16.4866 17.0024 16.3417 17.3521 16.3417 17.7168V20.9274C16.3418 21.2921 16.4867 21.6417 16.7446 21.8995L20.6743 25.8293C20.9837 26.1385 21.4032 26.3122 21.8407 26.3122C22.2781 26.3122 22.6976 26.1385 23.007 25.8293L25.8292 23.0071ZM18.7479 19.4355C18.5656 19.4355 18.3907 19.3631 18.2618 19.2342C18.1329 19.1052 18.0604 18.9304 18.0604 18.748C18.0604 18.5657 18.1329 18.3908 18.2618 18.2619C18.3907 18.133 18.5656 18.0605 18.7479 18.0605C18.9303 18.0605 19.1051 18.133 19.2341 18.2619C19.363 18.3908 19.4354 18.5657 19.4354 18.748C19.4354 18.9304 19.363 19.1052 19.2341 19.2342C19.1051 19.3631 18.9303 19.4355 18.7479 19.4355Z" fill="black" stroke="#F2F0FD" stroke-width="0.5"/>
</svg>
