<svg width="32" height="32" viewBox="0 0 32 32" fill="none" xmlns="http://www.w3.org/2000/svg">
<rect width="32" height="32" rx="4" fill="#FF1B1B" fill-opacity="0.1"/>
<path d="M23.1875 9.14217C22.9659 9.14217 22.7465 9.18651 22.5417 9.27267C22.337 9.35883 22.151 9.48511 21.9943 9.6443C21.8376 9.8035 21.7133 9.9925 21.6285 10.2005C21.5436 10.4085 21.5 10.6314 21.5 10.8566C21.5 11.0817 21.5436 11.3046 21.6285 11.5126C21.7133 11.7206 21.8376 11.9096 21.9943 12.0688C22.151 12.228 22.337 12.3543 22.5417 12.4405C22.7465 12.5266 22.9659 12.571 23.1875 12.571C23.6351 12.571 24.0643 12.3903 24.3807 12.0688C24.6972 11.7473 24.875 11.3113 24.875 10.8566C24.875 10.4019 24.6972 9.96582 24.3807 9.6443C24.0643 9.32279 23.6351 9.14217 23.1875 9.14217ZM20.375 10.8566C20.3752 10.2443 20.5689 9.64833 20.9276 9.15639C21.2864 8.66444 21.7912 8.30258 22.3676 8.1241C22.9441 7.94563 23.5617 7.95998 24.1296 8.16506C24.6974 8.37013 25.1854 8.75507 25.5216 9.26317C25.8578 9.77126 26.0245 10.3756 25.9971 10.9873C25.9697 11.5989 25.7496 12.1854 25.3694 12.6603C24.9891 13.1353 24.4687 13.4736 23.8849 13.6254C23.3011 13.7772 22.6847 13.7345 22.1266 13.5036L20.6844 15.7015C20.9586 15.983 21.1723 16.3193 21.3118 16.6891C21.4513 17.0589 21.5135 17.4542 21.4947 17.8498C21.4758 18.2454 21.3762 18.6327 21.2022 18.9871C21.0282 19.3415 20.7835 19.6552 20.4838 19.9085C20.184 20.1617 19.8357 20.3489 19.461 20.4581C19.0863 20.5673 18.6933 20.5962 18.307 20.5429C17.9207 20.4896 17.5496 20.3553 17.2171 20.1485C16.8846 19.9417 16.598 19.667 16.3756 19.3417L13.5676 20.5647C13.6051 20.7521 13.6243 20.9449 13.625 21.143C13.6249 21.8261 13.384 22.4865 12.9458 23.0046C12.5077 23.5228 11.9013 23.8643 11.2366 23.9673C10.572 24.0703 9.89297 23.928 9.32268 23.5662C8.7524 23.2043 8.32858 22.6469 8.12803 21.9949C7.92748 21.3429 7.96347 20.6395 8.22948 20.0122C8.4955 19.3848 8.97393 18.8751 9.57807 18.5752C10.1822 18.2754 10.8721 18.2054 11.5227 18.3779C12.1732 18.5504 12.7415 18.9539 13.1244 19.5154L15.9324 18.2925C15.829 17.7853 15.8632 17.259 16.0315 16.77C16.1997 16.281 16.4957 15.8477 16.8877 15.5164C17.2796 15.1851 17.7529 14.9683 18.2568 14.8892C18.7606 14.81 19.2762 14.8715 19.7484 15.0671L21.1906 12.8693C20.668 12.334 20.3749 11.6105 20.375 10.8566ZM17 17.7142C17 18.1689 17.1778 18.6049 17.4943 18.9264C17.8107 19.248 18.2399 19.4286 18.6875 19.4286C19.1351 19.4286 19.5643 19.248 19.8807 18.9264C20.1972 18.6049 20.375 18.1689 20.375 17.7142C20.375 17.2595 20.1972 16.8234 19.8807 16.5019C19.5643 16.1804 19.1351 15.9998 18.6875 15.9998C18.2399 15.9998 17.8107 16.1804 17.4943 16.5019C17.1778 16.8234 17 17.2595 17 17.7142ZM9.125 21.143C9.125 21.5977 9.30279 22.0337 9.61926 22.3552C9.93573 22.6768 10.3649 22.8574 10.8125 22.8574C11.2601 22.8574 11.6893 22.6768 12.0057 22.3552C12.3222 22.0337 12.5 21.5977 12.5 21.143C12.5 20.6883 12.3222 20.2522 12.0057 19.9307C11.6893 19.6092 11.2601 19.4286 10.8125 19.4286C10.3649 19.4286 9.93573 19.6092 9.61926 19.9307C9.30279 20.2522 9.125 20.6883 9.125 21.143Z" fill="#FF1B1B"/>
</svg>
