<svg width="32" height="32" viewBox="0 0 32 32" fill="none" xmlns="http://www.w3.org/2000/svg">
<rect width="32" height="32" rx="4" fill="#00AB44" fill-opacity="0.15"/>
<path fill-rule="evenodd" clip-rule="evenodd" d="M11.3069 6.25C10.5059 6.25 9.95694 6.25 9.46694 6.383C8.95981 6.52218 8.48763 6.76647 8.08104 7.10001C7.67446 7.43354 7.34258 7.84886 7.10694 8.319C6.87994 8.771 6.77294 9.31 6.61594 10.096L5.99594 13.194C5.88614 13.7371 5.89675 14.2976 6.02702 14.8362C6.15729 15.3747 6.40406 15.8781 6.74994 16.311V19.056C6.74994 20.894 6.74994 22.35 6.90294 23.489C7.06094 24.661 7.39294 25.61 8.14094 26.359C8.88894 27.107 9.83794 27.439 11.0109 27.597C12.1499 27.75 13.6059 27.75 15.4429 27.75H16.5559C18.3939 27.75 19.8499 27.75 20.9889 27.597C22.1609 27.439 23.1099 27.107 23.8589 26.359C24.6069 25.61 24.9389 24.661 25.0969 23.489C25.2499 22.349 25.2499 20.894 25.2499 19.056V16.312C25.5958 15.8789 25.8425 15.3753 25.9726 14.8366C26.1027 14.2979 26.113 13.7372 26.0029 13.194L25.3829 10.096C25.2269 9.31 25.1189 8.771 24.8929 8.319C24.6572 7.84876 24.3252 7.43337 23.9184 7.09983C23.5116 6.76629 23.0393 6.52206 22.5319 6.383C22.0429 6.25 21.4939 6.25 20.6919 6.25H11.3069ZM22.2679 17.75C22.7769 17.7509 23.2809 17.6496 23.7499 17.452V19C23.7499 20.907 23.7479 22.262 23.6099 23.29C23.4749 24.295 23.2209 24.875 22.7979 25.298C22.3749 25.721 21.7949 25.975 20.7879 26.11C20.2774 26.1727 19.7641 26.2107 19.2499 26.224V23.468C19.2499 23.028 19.2499 22.648 19.2219 22.338C19.1919 22.008 19.1259 21.682 18.9479 21.375C18.7507 21.0329 18.4668 20.7487 18.1249 20.551C17.8179 20.374 17.4919 20.308 17.1619 20.278C16.8519 20.25 16.4719 20.25 16.0319 20.25H15.9669C15.5269 20.25 15.1479 20.25 14.8369 20.278C14.5069 20.308 14.1819 20.374 13.8749 20.551C13.5327 20.7485 13.2485 21.0327 13.0509 21.375C12.8739 21.682 12.8079 22.008 12.7779 22.337C12.7499 22.649 12.7499 23.028 12.7499 23.467V26.224C12.2351 26.2108 11.7211 26.1728 11.2099 26.11C10.2049 25.975 9.62494 25.721 9.20194 25.298C8.77894 24.875 8.52494 24.295 8.38994 23.289C8.25094 22.262 8.24994 20.907 8.24994 19V17.452C9.04913 17.7891 9.93941 17.8433 10.7736 17.6059C11.6078 17.3684 12.3361 16.8534 12.8379 16.146C13.2008 16.6442 13.6765 17.0493 14.2261 17.3281C14.7758 17.6069 15.3836 17.7515 15.9999 17.75C16.6162 17.7515 17.2241 17.6069 17.7738 17.3281C18.3234 17.0493 18.7991 16.6442 19.1619 16.146C19.5135 16.6424 19.9791 17.0472 20.5196 17.3264C21.06 17.6055 21.6596 17.7508 22.2679 17.75ZM14.2499 26.248C14.6379 26.2493 15.0546 26.25 15.4999 26.25H16.4999C16.9453 26.25 17.3619 26.2493 17.7499 26.248V23.5C17.7499 23.019 17.7489 22.708 17.7279 22.473C17.7079 22.248 17.6729 22.166 17.6489 22.125C17.5832 22.0112 17.4887 21.9168 17.3749 21.851C17.3339 21.827 17.2519 21.793 17.0269 21.772C16.685 21.7511 16.3424 21.7438 15.9999 21.75C15.5189 21.75 15.2079 21.75 14.9729 21.772C14.7469 21.792 14.6659 21.827 14.6249 21.851C14.5108 21.9166 14.416 22.0111 14.3499 22.125C14.3269 22.165 14.2919 22.248 14.2719 22.473C14.2509 22.708 14.2499 23.019 14.2499 23.5V26.248ZM12.6699 7.75H11.4179C10.4639 7.75 10.1329 7.757 9.86494 7.83C9.56072 7.91344 9.27744 8.05992 9.0335 8.25994C8.78955 8.45995 8.59039 8.70903 8.44894 8.991C8.32394 9.24 8.25294 9.562 8.06594 10.498L7.46794 13.488C7.40421 13.7956 7.4039 14.1131 7.46704 14.4208C7.53018 14.7286 7.65543 15.0202 7.83515 15.2779C8.01486 15.5356 8.24525 15.754 8.51223 15.9196C8.77921 16.0852 9.07717 16.1946 9.38789 16.2411C9.6986 16.2877 10.0155 16.2703 10.3193 16.1901C10.6231 16.11 10.9073 15.9687 11.1546 15.7749C11.4019 15.5812 11.6071 15.339 11.7576 15.0632C11.9081 14.7874 12.0008 14.4838 12.0299 14.171L12.0989 13.485L12.1029 13.443L12.6699 7.75ZM13.5909 13.625L14.1789 7.75H17.8209L18.4049 13.592C18.4377 13.9263 18.4004 14.2637 18.2954 14.5827C18.1905 14.9018 18.0202 15.1955 17.7954 15.445C17.5706 15.6946 17.2963 15.8946 16.9899 16.0322C16.6836 16.1699 16.3519 16.2422 16.016 16.2445C15.6802 16.2468 15.3475 16.179 15.0393 16.0456C14.731 15.9122 14.454 15.716 14.2258 15.4695C13.9977 15.223 13.8234 14.9317 13.714 14.6142C13.6047 14.2966 13.5628 13.9597 13.5909 13.625ZM22.1349 7.83C21.8669 7.757 21.5359 7.75 20.5819 7.75H19.3279L19.9709 14.17C20.001 14.4819 20.0943 14.7844 20.2451 15.0592C20.3959 15.3339 20.601 15.575 20.848 15.7679C21.0949 15.9608 21.3786 16.1014 21.6816 16.1811C21.9847 16.2609 22.3008 16.2781 22.6107 16.2318C22.9207 16.1854 23.2179 16.0765 23.4844 15.9116C23.7508 15.7467 23.9809 15.5293 24.1607 15.2726C24.3404 15.0159 24.466 14.7253 24.5299 14.4185C24.5937 14.1117 24.5944 13.7951 24.5319 13.488L23.9349 10.498C23.7469 9.562 23.6759 9.24 23.5519 8.991C23.4104 8.70892 23.2111 8.45978 22.9669 8.25976C22.7228 8.05974 22.4394 7.91332 22.1349 7.83Z" fill="#00AB44" stroke="#D9F2E3" stroke-width="0.5"/>
</svg>
