<svg width="32" height="32" viewBox="0 0 32 32" fill="none" xmlns="http://www.w3.org/2000/svg">
<rect width="32" height="32" rx="4" fill="#00AB44" fill-opacity="0.15"/>
<g clip-path="url(#clip0_108_1439)">
<path d="M15.3652 16.0195C15.0527 16.0065 14.7305 15.9674 14.3984 15.9023C14.0664 15.8372 13.7604 15.7363 13.4805 15.5996C13.3698 15.5475 13.2819 15.4727 13.2168 15.375C13.1517 15.2773 13.1191 15.1634 13.1191 15.0332C13.1191 14.8639 13.181 14.7174 13.3047 14.5938C13.4284 14.4701 13.5749 14.4082 13.7441 14.4082C13.8288 14.4082 13.9167 14.4277 14.0078 14.4668C14.4375 14.6556 14.8867 14.7533 15.3555 14.7598V12.6211C15.1146 12.5365 14.8835 12.4323 14.6621 12.3086C14.4408 12.1849 14.2422 12.0384 14.0664 11.8691C13.8906 11.6999 13.7507 11.5013 13.6465 11.2734C13.5423 11.0456 13.4902 10.7949 13.4902 10.5215C13.4902 10.2546 13.5423 10.0137 13.6465 9.79883C13.7507 9.58398 13.8906 9.39844 14.0664 9.24219C14.2422 9.08594 14.4408 8.95247 14.6621 8.8418C14.8835 8.73112 15.1146 8.64974 15.3555 8.59766C15.3555 8.40885 15.4076 8.24609 15.5117 8.10938C15.6159 7.97266 15.7721 7.90104 15.9805 7.89453C16.1562 7.89453 16.3027 7.95312 16.4199 8.07031C16.5371 8.1875 16.599 8.33724 16.6055 8.51953C16.8333 8.53255 17.0482 8.56185 17.25 8.60742C17.4518 8.65299 17.6634 8.70833 17.8848 8.77344L17.4551 9.94531C17.3184 9.89323 17.1784 9.85417 17.0352 9.82812C16.8919 9.80208 16.7487 9.78255 16.6055 9.76953V11.7227C16.8268 11.8008 17.0482 11.9049 17.2695 12.0352C17.4909 12.1654 17.6927 12.3184 17.875 12.4941C18.0573 12.6699 18.2038 12.8685 18.3145 13.0898C18.4251 13.3112 18.4805 13.5521 18.4805 13.8125C18.4805 14.099 18.4316 14.3594 18.334 14.5938C18.2363 14.8281 18.1061 15.0332 17.9434 15.209C17.7806 15.3848 17.582 15.5312 17.3477 15.6484C17.1133 15.7656 16.8659 15.8568 16.6055 15.9219C16.6055 16.1042 16.5501 16.2604 16.4395 16.3906C16.3288 16.5208 16.1758 16.5859 15.9805 16.5859C15.8177 16.5859 15.6777 16.5306 15.5605 16.4199C15.4434 16.3092 15.3783 16.1758 15.3652 16.0195ZM16.6055 14.623C16.7878 14.5514 16.9375 14.4538 17.0547 14.3301C17.1719 14.2064 17.2305 14.0371 17.2305 13.8223C17.2305 13.7441 17.2109 13.6693 17.1719 13.5977C17.1328 13.526 17.0807 13.4609 17.0156 13.4023C16.9505 13.3438 16.8822 13.2884 16.8105 13.2363C16.7389 13.1842 16.6706 13.1387 16.6055 13.0996V14.623ZM14.7402 10.5215C14.7402 10.7038 14.8053 10.8535 14.9355 10.9707C15.0658 11.0879 15.2057 11.1855 15.3555 11.2637V9.90625C15.3359 9.91276 15.2936 9.92904 15.2285 9.95508C15.1634 9.98112 15.1243 10.0039 15.1113 10.0234C15.0202 10.056 14.9355 10.1211 14.8574 10.2188C14.7793 10.3164 14.7402 10.4173 14.7402 10.5215ZM22.0156 13.9492C22.6146 14.1836 23.1582 14.4961 23.6465 14.8867C24.1348 15.2773 24.5514 15.7233 24.8965 16.2246C25.2415 16.7259 25.5117 17.276 25.707 17.875C25.9023 18.474 26 19.0957 26 19.7402C26 20.3132 25.9251 20.8665 25.7754 21.4004C25.6257 21.9342 25.4173 22.4323 25.1504 22.8945C24.8835 23.3568 24.5579 23.7767 24.1738 24.1543C23.7897 24.5319 23.3665 24.8607 22.9043 25.1406C22.4421 25.4206 21.944 25.6322 21.4102 25.7754C20.8763 25.9186 20.3229 25.9935 19.75 26C19.0729 26 18.4154 25.8926 17.7773 25.6777C17.1393 25.4629 16.5501 25.1504 16.0098 24.7402C15.4629 25.1504 14.8704 25.4629 14.2324 25.6777C13.5944 25.8926 12.9336 26 12.25 26C11.6706 26 11.1172 25.9251 10.5898 25.7754C10.0625 25.6257 9.56445 25.4173 9.0957 25.1504C8.62695 24.8835 8.20703 24.5579 7.83594 24.1738C7.46484 23.7897 7.13932 23.3665 6.85938 22.9043C6.57943 22.4421 6.36784 21.944 6.22461 21.4102C6.08138 20.8763 6.00651 20.3197 6 19.7402C6 19.0957 6.0944 18.4772 6.2832 17.8848C6.47201 17.2923 6.74219 16.7422 7.09375 16.2344C7.44531 15.7266 7.86523 15.2773 8.35352 14.8867C8.8418 14.4961 9.38542 14.1836 9.98438 13.9492C9.82812 13.4023 9.75 12.8392 9.75 12.2598C9.75 11.6868 9.82487 11.1335 9.97461 10.5996C10.1243 10.0658 10.3327 9.56771 10.5996 9.10547C10.8665 8.64323 11.1921 8.22331 11.5762 7.8457C11.9603 7.4681 12.3835 7.13932 12.8457 6.85938C13.3079 6.57943 13.806 6.36784 14.3398 6.22461C14.8737 6.08138 15.4271 6.00651 16 6C16.5729 6 17.1263 6.07487 17.6602 6.22461C18.194 6.37435 18.6921 6.58594 19.1543 6.85938C19.6165 7.13281 20.0365 7.45833 20.4141 7.83594C20.7917 8.21354 21.1172 8.63672 21.3906 9.10547C21.6641 9.57422 21.8757 10.0723 22.0254 10.5996C22.1751 11.127 22.25 11.6803 22.25 12.2598C22.25 12.8392 22.1719 13.4023 22.0156 13.9492ZM16 7.25C15.3099 7.25 14.6621 7.38021 14.0566 7.64062C13.4512 7.90104 12.9206 8.26237 12.4648 8.72461C12.0091 9.18685 11.651 9.71745 11.3906 10.3164C11.1302 10.9154 11 11.5632 11 12.2598C11 12.9499 11.1302 13.5977 11.3906 14.2031C11.651 14.8086 12.0059 15.3392 12.4551 15.7949C12.9043 16.2507 13.4349 16.6087 14.0469 16.8691C14.6589 17.1296 15.3099 17.263 16 17.2695C16.6901 17.2695 17.3379 17.1393 17.9434 16.8789C18.5488 16.6185 19.0794 16.2604 19.5352 15.8047C19.9909 15.349 20.349 14.8184 20.6094 14.2129C20.8698 13.6074 21 12.9564 21 12.2598C21 11.5697 20.8698 10.9219 20.6094 10.3164C20.349 9.71094 19.9941 9.18034 19.5449 8.72461C19.0957 8.26888 18.5651 7.91081 17.9531 7.65039C17.3411 7.38997 16.6901 7.25651 16 7.25ZM12.25 24.75C12.9401 24.75 13.5879 24.6198 14.1934 24.3594C14.7988 24.099 15.3294 23.7409 15.7852 23.2852C16.2409 22.8294 16.599 22.2988 16.8594 21.6934C17.1198 21.0879 17.25 20.4368 17.25 19.7402C17.25 19.2975 17.1849 18.8613 17.0547 18.4316C16.7031 18.4902 16.3516 18.5195 16 18.5195C15.3164 18.5195 14.6556 18.4121 14.0176 18.1973C13.3796 17.9824 12.7839 17.6667 12.2305 17.25C12.1849 17.276 12.1426 17.2923 12.1035 17.2988C11.5306 17.4681 11.0977 17.7643 10.8047 18.1875C10.5117 18.6107 10.362 19.1217 10.3555 19.7207V19.7402H11.5859C11.7552 19.7402 11.9017 19.8021 12.0254 19.9258C12.1491 20.0495 12.2109 20.196 12.2109 20.3652C12.2109 20.5671 12.1556 20.7103 12.0449 20.7949C11.9342 20.8796 11.8008 20.9382 11.6445 20.9707C11.4883 21.0033 11.3223 21.0163 11.1465 21.0098C10.9707 21.0033 10.821 20.9967 10.6973 20.9902C10.9251 21.3743 11.2279 21.6738 11.6055 21.8887C11.9831 22.1035 12.3997 22.2142 12.8555 22.2207C13.0443 22.2207 13.2201 22.2012 13.3828 22.1621C13.5456 22.123 13.7148 22.0677 13.8906 21.9961C13.9753 21.9635 14.0599 21.9473 14.1445 21.9473C14.3138 21.9473 14.4603 22.0059 14.584 22.123C14.7077 22.2402 14.7695 22.3867 14.7695 22.5625C14.7695 22.7513 14.6979 22.9043 14.5547 23.0215C14.4115 23.1387 14.2357 23.2298 14.0273 23.2949C13.819 23.36 13.6074 23.4056 13.3926 23.4316C13.1777 23.4577 12.9987 23.4707 12.8555 23.4707C12.4583 23.4707 12.0775 23.4121 11.7129 23.2949C11.3483 23.1777 11.0098 23.0085 10.6973 22.7871C10.3848 22.5658 10.1113 22.3053 9.87695 22.0059C9.64258 21.7064 9.45703 21.3678 9.32031 20.9902C9.21615 20.9902 9.11523 20.9805 9.01758 20.9609C8.91992 20.9414 8.83529 20.9089 8.76367 20.8633C8.69206 20.8177 8.63021 20.7559 8.57812 20.6777C8.52604 20.5996 8.50326 20.4954 8.50977 20.3652C8.50977 20.196 8.5651 20.0527 8.67578 19.9355C8.78646 19.8184 8.92969 19.7533 9.10547 19.7402C9.10547 19.3757 9.15104 19.0208 9.24219 18.6758C9.33333 18.3307 9.4668 18.0052 9.64258 17.6992C9.81836 17.3932 10.0365 17.1198 10.2969 16.8789C10.5573 16.638 10.8633 16.4427 11.2148 16.293C11.0651 16.1042 10.9251 15.9089 10.7949 15.707C10.6647 15.5052 10.541 15.2969 10.4238 15.082C9.94206 15.2708 9.50911 15.5215 9.125 15.834C8.74089 16.1465 8.4056 16.5078 8.11914 16.918C7.83268 17.3281 7.61784 17.7708 7.47461 18.2461C7.33138 18.7214 7.25651 19.2194 7.25 19.7402C7.25 20.4303 7.38021 21.0781 7.64062 21.6836C7.90104 22.2891 8.25586 22.8197 8.70508 23.2754C9.1543 23.7311 9.6849 24.0892 10.2969 24.3496C10.9089 24.61 11.5599 24.7435 12.25 24.75ZM19.75 24.75C20.4401 24.75 21.0879 24.6198 21.6934 24.3594C22.2988 24.099 22.8294 23.7409 23.2852 23.2852C23.7409 22.8294 24.099 22.2988 24.3594 21.6934C24.6198 21.0879 24.75 20.4368 24.75 19.7402C24.75 19.2259 24.6751 18.7311 24.5254 18.2559C24.3757 17.7806 24.1608 17.3379 23.8809 16.9277C23.6009 16.5176 23.2656 16.1595 22.875 15.8535C22.4844 15.5475 22.0514 15.2936 21.5762 15.0918C21.3288 15.5736 21.026 16.0163 20.668 16.4199C20.3099 16.8236 19.9062 17.1751 19.457 17.4746L20.3652 18.7051L21.7324 16.8789C21.8561 16.7096 22.0221 16.625 22.2305 16.625C22.4062 16.625 22.556 16.6868 22.6797 16.8105C22.8034 16.9342 22.8652 17.084 22.8652 17.2598C22.8652 17.39 22.8229 17.5137 22.7383 17.6309L20.9805 19.9648V20.9902H21.3809C21.5241 20.9902 21.6608 21.0033 21.791 21.0293C21.9212 21.0553 22.0286 21.1139 22.1133 21.2051C22.1979 21.2962 22.2435 21.4329 22.25 21.6152C22.25 21.7975 22.2077 21.931 22.123 22.0156C22.0384 22.1003 21.931 22.1621 21.8008 22.2012C21.6706 22.2402 21.5339 22.2565 21.3906 22.25C21.2474 22.2435 21.1107 22.2402 20.9805 22.2402V22.6406C20.9805 22.7839 20.9674 22.9206 20.9414 23.0508C20.9154 23.181 20.8568 23.2884 20.7656 23.373C20.6745 23.4577 20.5378 23.5033 20.3555 23.5098C20.1732 23.5098 20.0397 23.4674 19.9551 23.3828C19.8704 23.2982 19.8086 23.1908 19.7695 23.0605C19.7305 22.9303 19.7142 22.7936 19.7207 22.6504C19.7272 22.5072 19.7305 22.3704 19.7305 22.2402H19.3301C19.1868 22.2402 19.0534 22.2272 18.9297 22.2012C18.806 22.1751 18.6986 22.1165 18.6074 22.0254C18.5163 21.9342 18.474 21.7975 18.4805 21.6152C18.4805 21.4329 18.5228 21.2995 18.6074 21.2148C18.6921 21.1302 18.7962 21.0684 18.9199 21.0293C19.0436 20.9902 19.1803 20.974 19.3301 20.9805C19.4798 20.987 19.6133 20.9902 19.7305 20.9902V19.9648L18.3438 18.0703L18.2852 18.0898C18.3633 18.3568 18.4186 18.6302 18.4512 18.9102C18.4837 19.1901 18.5 19.4668 18.5 19.7402C18.5 20.5085 18.3698 21.2441 18.1094 21.9473C17.849 22.6504 17.4616 23.2917 16.9473 23.8711C17.3639 24.1576 17.8066 24.3757 18.2754 24.5254C18.7441 24.6751 19.2357 24.75 19.75 24.75Z" fill="#00AB44" stroke="#D9F2E3" stroke-width="0.5"/>
</g>
<defs>
<clipPath id="clip0_108_1439">
<rect width="20" height="20" fill="white" transform="translate(6 6)"/>
</clipPath>
</defs>
</svg>
