<svg width="32" height="32" viewBox="0 0 32 32" fill="none" xmlns="http://www.w3.org/2000/svg">
<rect width="32" height="32" rx="4" fill="#00AB44" fill-opacity="0.15"/>
<path d="M21.371 22.587L20.716 21.931C20.6293 21.845 20.527 21.802 20.409 21.802C20.2903 21.802 20.188 21.845 20.102 21.931C20.016 22.0163 19.973 22.1173 19.973 22.234C19.973 22.3507 20.016 22.452 20.102 22.538L20.962 23.398C21.086 23.5227 21.2257 23.585 21.381 23.585C21.5363 23.585 21.676 23.5227 21.8 23.398L23.898 21.331C23.984 21.245 24.0303 21.146 24.037 21.034C24.0437 20.9213 23.9973 20.8157 23.898 20.717C23.812 20.631 23.7067 20.588 23.582 20.588C23.4573 20.588 23.3517 20.6313 23.265 20.718L21.371 22.587ZM11.27 12.73H20.732C20.874 12.73 20.9927 12.6823 21.088 12.587C21.1833 12.4917 21.2313 12.3727 21.232 12.23C21.232 12.0747 21.184 11.9527 21.088 11.864C20.9927 11.7747 20.874 11.73 20.732 11.73H11.269C11.127 11.73 11.008 11.7777 10.912 11.873C10.816 11.9683 10.7683 12.0873 10.769 12.23C10.7697 12.3727 10.8173 12.4917 10.912 12.587C11.0067 12.6823 11.1267 12.73 11.27 12.73ZM22 26.116C20.886 26.116 19.941 25.7277 19.165 24.951C18.3883 24.175 18 23.23 18 22.116C18 21.002 18.3883 20.0567 19.165 19.28C19.9417 18.5033 20.8867 18.1153 22 18.116C23.1133 18.1167 24.0587 18.5047 24.836 19.28C25.6133 20.0553 26.0013 21.0007 26 22.116C26 23.2293 25.612 24.1743 24.836 24.951C24.0587 25.7277 23.1133 26.116 22 26.116ZM8 9.616C8 9.168 8.15733 8.78667 8.472 8.472C8.78667 8.15733 9.168 8 9.616 8H22.385C22.8317 8 23.2127 8.15733 23.528 8.472C23.8427 8.78667 24 9.168 24 9.616V14.933C24 15.075 23.9523 15.194 23.857 15.29C23.7617 15.386 23.6427 15.4337 23.5 15.433C23.3573 15.4323 23.2383 15.3847 23.143 15.29C23.0477 15.1953 23 15.0763 23 14.933V9.616C23 9.462 22.936 9.32067 22.808 9.192C22.68 9.06333 22.5387 8.99933 22.384 9H9.616C9.462 9 9.32067 9.064 9.192 9.192C9.06333 9.32 8.99933 9.46133 9 9.616V23.05H15.344C15.3647 23.1847 15.389 23.3193 15.417 23.454C15.4457 23.5887 15.4823 23.7213 15.527 23.852C15.5717 23.9713 15.5417 24.069 15.437 24.145C15.3317 24.2217 15.2317 24.225 15.137 24.155L14.888 23.985C14.814 23.9363 14.736 23.912 14.654 23.912C14.572 23.912 14.4937 23.9363 14.419 23.985L13.542 24.592C13.468 24.6413 13.39 24.666 13.308 24.666C13.226 24.666 13.1477 24.6413 13.073 24.592L12.196 23.985C12.1213 23.9363 12.043 23.912 11.961 23.912C11.879 23.912 11.801 23.9363 11.727 23.985L10.85 24.592C10.776 24.6413 10.698 24.666 10.616 24.666C10.534 24.666 10.4557 24.6413 10.381 24.592L9.504 23.985C9.42933 23.9363 9.351 23.912 9.269 23.912C9.187 23.912 9.109 23.9363 9.035 23.985L8 24.788V9.616ZM11.27 20.269H15.144C15.2867 20.269 15.4057 20.2213 15.501 20.126C15.5963 20.0307 15.644 19.9117 15.644 19.769C15.644 19.6263 15.5963 19.5077 15.501 19.413C15.4057 19.3183 15.2867 19.2703 15.144 19.269H11.27C11.128 19.269 11.009 19.317 10.913 19.413C10.817 19.509 10.7693 19.6277 10.77 19.769C10.7707 19.9103 10.8183 20.0293 10.913 20.126C11.0077 20.2227 11.1267 20.2703 11.27 20.269ZM11.27 16.5H18.474C18.616 16.5 18.735 16.4523 18.831 16.357C18.927 16.2617 18.9747 16.1427 18.974 16C18.9733 15.8573 18.9257 15.7383 18.831 15.643C18.7363 15.5477 18.6173 15.5 18.474 15.5H11.269C11.127 15.5 11.008 15.5477 10.912 15.643C10.816 15.7383 10.7687 15.8573 10.77 16C10.7713 16.1427 10.819 16.2617 10.913 16.357C11.007 16.4523 11.126 16.5 11.27 16.5Z" fill="#00AB44"/>
</svg>
