<svg width="32" height="32" viewBox="0 0 32 32" fill="none" xmlns="http://www.w3.org/2000/svg">
<rect width="32" height="32" rx="4" fill="#FF1B1B" fill-opacity="0.1"/>
<path d="M13.3077 10.1538H11.5769C11.4239 10.1538 11.2772 10.2146 11.169 10.3228C11.0608 10.431 11 10.5778 11 10.7308V23.4231C11 23.5761 11.0608 23.7228 11.169 23.831C11.2772 23.9392 11.4239 24 11.5769 24H20.8077C20.9607 24 21.1074 23.9392 21.2156 23.831C21.3238 23.7228 21.3846 23.5761 21.3846 23.4231V10.7308C21.3846 10.5778 21.3238 10.431 21.2156 10.3228C21.1074 10.2146 20.9607 10.1538 20.8077 10.1538H19.0769M16.1923 13.6154V18.8077M18.8427 9.75V9.75C18.553 10.6767 17.6947 11.3077 16.7237 11.3077H15.6609C14.6899 11.3077 13.8316 10.6767 13.5419 9.75V9.75C13.5147 9.66359 13.5083 9.57199 13.5231 9.48262C13.5379 9.39325 13.5736 9.30863 13.6272 9.2356C13.6807 9.16257 13.7508 9.10318 13.8316 9.06225C13.9124 9.02132 14.0017 8.99999 14.0923 9H18.2923C18.3829 8.99999 18.4722 9.02132 18.553 9.06225C18.6338 9.10318 18.7039 9.16257 18.7575 9.2356C18.8111 9.30863 18.8467 9.39325 18.8615 9.48262C18.8763 9.57199 18.8699 9.66359 18.8427 9.75ZM16.4808 20.8269C16.4808 20.9034 16.4504 20.9768 16.3963 21.0309C16.3422 21.085 16.2688 21.1154 16.1923 21.1154C16.1158 21.1154 16.0424 21.085 15.9883 21.0309C15.9342 20.9768 15.9038 20.9034 15.9038 20.8269C15.9038 20.7504 15.9342 20.677 15.9883 20.6229C16.0424 20.5689 16.1158 20.5385 16.1923 20.5385C16.2688 20.5385 16.3422 20.5689 16.3963 20.6229C16.4504 20.677 16.4808 20.7504 16.4808 20.8269ZM16.1952 20.8327V20.8327C16.1968 20.8327 16.1981 20.8314 16.1981 20.8298V20.8298C16.1981 20.8282 16.1968 20.8269 16.1952 20.8269V20.8269C16.1936 20.8269 16.1923 20.8282 16.1923 20.8298V20.8298C16.1923 20.8314 16.1936 20.8327 16.1952 20.8327Z" stroke="#FF1B1B" stroke-width="0.7"/>
</svg>
