<svg width="18" height="18" viewBox="0 0 18 18" fill="none" xmlns="http://www.w3.org/2000/svg">
<path d="M5.25 12.75V9.75M9 12.75V5.25M12.75 12.75V8.25M1.875 9C1.875 5.6415 1.875 3.9615 2.91825 2.91825C3.9615 1.875 5.64075 1.875 9 1.875C12.3585 1.875 14.0385 1.875 15.0817 2.91825C16.125 3.9615 16.125 5.64075 16.125 9C16.125 12.3585 16.125 14.0385 15.0817 15.0817C14.0385 16.125 12.3593 16.125 9 16.125C5.6415 16.125 3.9615 16.125 2.91825 15.0817C1.875 14.0385 1.875 12.3593 1.875 9Z" stroke="white" stroke-linecap="round" stroke-linejoin="round"/>
</svg>
