<svg width="16" height="16" viewBox="0 0 16 16" fill="none" xmlns="http://www.w3.org/2000/svg">
<path d="M13.4885 9.125H10.5748C10.1908 9.12658 9.82306 9.27985 9.55164 9.55141C9.28022 9.82297 9.12713 10.1908 9.12575 10.5748V13.4885C9.12555 13.6788 9.1629 13.8674 9.23565 14.0432C9.3084 14.2191 9.41512 14.3789 9.54971 14.5135C9.68431 14.6481 9.84412 14.7549 10.02 14.8276C10.1959 14.9004 10.3844 14.9377 10.5748 14.9375H13.4885C13.8727 14.9373 14.2412 14.7846 14.5129 14.5129C14.7846 14.2412 14.9373 13.8727 14.9375 13.4885V10.5748C14.9377 10.3844 14.9004 10.1959 14.8276 10.02C14.7549 9.84412 14.6481 9.6843 14.5135 9.54971C14.3789 9.41512 14.2191 9.3084 14.0432 9.23565C13.8674 9.1629 13.6788 9.12555 13.4885 9.12575M13.4885 1.0625H2.5115C2.32116 1.0623 2.13265 1.09965 1.95676 1.1724C1.78087 1.24515 1.62106 1.35187 1.48646 1.48646C1.35187 1.62105 1.24515 1.78087 1.1724 1.95676C1.09965 2.13265 1.0623 2.32116 1.0625 2.5115V5.42525C1.06221 5.61565 1.09948 5.80425 1.17218 5.98022C1.24489 6.1562 1.3516 6.3161 1.4862 6.45077C1.6208 6.58544 1.78065 6.69224 1.95659 6.76503C2.13253 6.83783 2.3211 6.8752 2.5115 6.875H13.4885C13.6788 6.8752 13.8674 6.83785 14.0432 6.7651C14.2191 6.69235 14.3789 6.58563 14.5135 6.45104C14.6481 6.31645 14.7549 6.15663 14.8276 5.98074C14.9004 5.80485 14.9377 5.61634 14.9375 5.426V2.5115C14.9377 2.32116 14.9004 2.13265 14.8276 1.95676C14.7549 1.78087 14.6481 1.62105 14.5135 1.48646C14.3789 1.35187 14.2191 1.24515 14.0432 1.1724C13.8674 1.09965 13.6788 1.0623 13.4885 1.0625ZM5.42525 9.125H2.5115C2.3211 9.1248 2.13253 9.16217 1.95659 9.23497C1.78065 9.30776 1.6208 9.41456 1.4862 9.54923C1.3516 9.6839 1.24489 9.8438 1.17218 10.0198C1.09948 10.1958 1.06221 10.3843 1.0625 10.5748V13.4885C1.0623 13.6788 1.09965 13.8674 1.1724 14.0432C1.24515 14.2191 1.35187 14.3789 1.48646 14.5135C1.62106 14.6481 1.78087 14.7549 1.95676 14.8276C2.13265 14.9004 2.32116 14.9377 2.5115 14.9375H5.42525C5.61559 14.9377 5.8041 14.9004 5.97999 14.8276C6.15588 14.7549 6.3157 14.6481 6.45029 14.5135C6.58488 14.3789 6.69161 14.2191 6.76436 14.0432C6.8371 13.8674 6.87445 13.6788 6.87425 13.4885V10.5748C6.87287 10.1908 6.71979 9.82297 6.44837 9.55141C6.17695 9.27985 5.80919 9.12658 5.42525 9.125Z" stroke="white" stroke-linecap="round" stroke-linejoin="round"/>
</svg>
