<svg width="18" height="18" viewBox="0 0 18 18" fill="none" xmlns="http://www.w3.org/2000/svg">
<path d="M6.858 1.875C4.86525 1.92 3.70125 2.11125 2.9055 2.90625C2.10975 3.70125 1.9215 4.86525 1.875 6.85875M11.142 1.875C13.1348 1.92 14.2987 2.11125 15.0945 2.90625C15.8902 3.70125 16.0792 4.86525 16.125 6.85875M11.142 16.125C13.1348 16.08 14.2987 15.8887 15.0945 15.0938C15.8902 14.2988 16.0792 13.1347 16.125 11.1412M6.858 16.125C4.86525 16.08 3.70125 15.8887 2.9055 15.0938C2.10975 14.2988 1.92075 13.1347 1.875 11.1412M6 6H6.00675M12 12H12.0068M6 12L12 6" stroke="white" stroke-linecap="round" stroke-linejoin="round"/>
</svg>
