<svg width="18" height="18" viewBox="0 0 18 18" fill="none" xmlns="http://www.w3.org/2000/svg">
<path d="M10.125 7.875C10.125 8.47174 9.88795 9.04403 9.46599 9.46599C9.04403 9.88795 8.47174 10.125 7.875 10.125C7.27826 10.125 6.70597 9.88795 6.28401 9.46599C5.86205 9.04403 5.625 8.47174 5.625 7.875C5.625 7.27826 5.86205 6.70597 6.28401 6.28401C6.70597 5.86205 7.27826 5.625 7.875 5.625C8.47174 5.625 9.04403 5.86205 9.46599 6.28401C9.88795 6.70597 10.125 7.27826 10.125 7.875ZM9 7.875C9 7.57663 8.88147 7.29048 8.6705 7.0795C8.45952 6.86853 8.17337 6.75 7.875 6.75C7.57663 6.75 7.29048 6.86853 7.0795 7.0795C6.86853 7.29048 6.75 7.57663 6.75 7.875C6.75 8.17337 6.86853 8.45952 7.0795 8.6705C7.29048 8.88147 7.57663 9 7.875 9C8.17337 9 8.45952 8.88147 8.6705 8.6705C8.88147 8.45952 9 8.17337 9 7.875ZM1.125 4.78125C1.125 4.005 1.755 3.375 2.53125 3.375H13.2188C13.995 3.375 14.625 4.005 14.625 4.78125V10.9688C14.625 11.745 13.995 12.375 13.2188 12.375H2.53125C1.755 12.375 1.125 11.745 1.125 10.9688V4.78125ZM2.53125 4.5C2.45666 4.5 2.38512 4.52963 2.33238 4.58238C2.27963 4.63512 2.25 4.70666 2.25 4.78125V5.625H2.8125C2.96168 5.625 3.10476 5.56574 3.21025 5.46025C3.31574 5.35476 3.375 5.21168 3.375 5.0625V4.5H2.53125ZM2.25 10.9688C2.25 11.124 2.376 11.25 2.53125 11.25H3.375V10.6875C3.375 10.5383 3.31574 10.3952 3.21025 10.2898C3.10476 10.1843 2.96168 10.125 2.8125 10.125H2.25V10.9688ZM4.5 10.6875V11.25H11.25V10.6875C11.25 10.2399 11.4278 9.81072 11.7443 9.49426C12.0607 9.17779 12.4899 9 12.9375 9H13.5V6.75H12.9375C12.4899 6.75 12.0607 6.57221 11.7443 6.25574C11.4278 5.93928 11.25 5.51005 11.25 5.0625V4.5H4.5V5.0625C4.5 5.51005 4.32221 5.93928 4.00574 6.25574C3.68928 6.57221 3.26005 6.75 2.8125 6.75H2.25V9H2.8125C3.26005 9 3.68928 9.17779 4.00574 9.49426C4.32221 9.81072 4.5 10.2399 4.5 10.6875ZM12.375 11.25H13.2188C13.2933 11.25 13.3649 11.2204 13.4176 11.1676C13.4704 11.1149 13.5 11.0433 13.5 10.9688V10.125H12.9375C12.7883 10.125 12.6452 10.1843 12.5398 10.2898C12.4343 10.3952 12.375 10.5383 12.375 10.6875V11.25ZM13.5 5.625V4.78125C13.5 4.70666 13.4704 4.63512 13.4176 4.58238C13.3649 4.52963 13.2933 4.5 13.2188 4.5H12.375V5.0625C12.375 5.21168 12.4343 5.35476 12.5398 5.46025C12.6452 5.56574 12.7883 5.625 12.9375 5.625H13.5ZM5.0625 14.625C4.70612 14.6251 4.35885 14.5124 4.07046 14.3031C3.78207 14.0937 3.56736 13.7984 3.45712 13.4595C3.61312 13.4865 3.77325 13.5 3.9375 13.5H13.2188C13.8901 13.5 14.5339 13.2333 15.0086 12.7586C15.4833 12.2839 15.75 11.6401 15.75 10.9688V5.72062C16.0792 5.837 16.3641 6.05259 16.5656 6.3377C16.7671 6.6228 16.8752 6.96338 16.875 7.3125V10.9688C16.875 11.4489 16.7804 11.9243 16.5967 12.3679C16.4129 12.8115 16.1436 13.2146 15.8041 13.5541C15.4646 13.8936 15.0615 14.1629 14.6179 14.3467C14.1743 14.5304 13.6989 14.625 13.2188 14.625H5.0625Z" fill="white"/>
</svg>
