<svg width="18" height="18" viewBox="0 0 18 18" fill="none" xmlns="http://www.w3.org/2000/svg">
<path d="M14.9765 2.89282C15.7132 2.89282 16.2659 3.07582 16.6345 3.44182C16.9835 3.78897 17.1672 4.29586 17.1854 4.9625L17.187 5.075V12.7417C17.187 13.4647 17.0027 14.0079 16.6341 14.3714C16.2853 14.7164 15.771 14.8978 15.0913 14.9155L14.9765 14.9171H2.85353C2.11682 14.9171 1.56417 14.7353 1.1956 14.3717C0.846531 14.0267 0.662888 13.521 0.644674 12.8545L0.643066 12.742V5.07532C0.643066 4.34761 0.827352 3.80193 1.19592 3.43829C1.54478 3.09371 2.05907 2.91243 2.73878 2.89443L2.85353 2.89282H14.9765ZM1.77642 12.6784C1.77642 13.0446 1.87028 13.3204 2.05799 13.5058C2.23157 13.6768 2.47478 13.7689 2.78764 13.7822L2.868 13.7838L8.4856 13.7835V10.0526H8.43642C8.31921 10.4139 8.13492 10.7589 7.88357 11.0876C7.63278 11.4157 7.34454 11.7133 7.02471 11.9745C6.72304 12.2242 6.39495 12.4402 6.04628 12.6186C5.71542 12.7851 5.41617 12.8896 5.14853 12.932C4.9471 12.9599 4.78874 12.9152 4.67346 12.798C4.55839 12.6808 4.50085 12.5447 4.50085 12.3898C4.50085 12.2207 4.55014 12.0834 4.64871 11.978C4.73507 11.8854 4.85185 11.8263 4.99907 11.8006L5.06432 11.7913C5.3086 11.7634 5.56896 11.6731 5.84539 11.5203C6.1327 11.3606 6.40293 11.1719 6.65185 10.9571C6.90383 10.7429 7.13697 10.5073 7.34871 10.2532C7.52721 10.0376 7.66724 9.83364 7.76882 9.64122L7.80964 9.55957H1.77642V12.6784ZM16.0533 9.55957H10.0201C10.1236 9.77557 10.2774 10.0068 10.4814 10.2532C10.6932 10.5074 10.9264 10.7429 11.1785 10.9571C11.4389 11.1802 11.7063 11.3679 11.9808 11.5203C12.2251 11.6557 12.4572 11.7422 12.677 11.7797L12.759 11.7913C12.942 11.8101 13.0828 11.8723 13.1814 11.9777C13.2799 12.0835 13.3292 12.2209 13.3292 12.3898C13.3292 12.5447 13.2717 12.6808 13.1566 12.798C13.0417 12.9152 12.8834 12.9599 12.6815 12.932C12.4094 12.8896 12.109 12.7851 11.7802 12.6186C11.4332 12.4394 11.1064 12.2234 10.8054 11.9745C10.4839 11.7115 10.1976 11.4158 9.9465 11.0873C9.73162 10.8094 9.55937 10.5009 9.43542 10.1722L9.39364 10.0526H9.33739V13.7835H14.9624C15.3095 13.7835 15.5782 13.6909 15.7685 13.5058C15.944 13.3343 16.0385 13.0862 16.052 12.7613L16.0536 12.6784L16.0533 9.55957ZM15.0411 4.02779L14.9624 4.02618H9.33739V6.44107C9.48351 6.15318 9.67483 5.89056 9.90407 5.66321C10.1169 5.45225 10.3663 5.2817 10.6401 5.15986C10.9038 5.0431 11.1891 4.98309 11.4775 4.98372C11.9845 4.98372 12.4057 5.1515 12.7413 5.48707C13.0769 5.82264 13.2447 6.24854 13.2447 6.76475C13.2447 7.06046 13.1814 7.33625 13.0547 7.59211C12.9237 7.8532 12.7431 8.08629 12.5231 8.27836C12.3172 8.45944 12.0882 8.61229 11.842 8.73286L11.7311 8.78525H16.0533V5.13864C16.0533 4.77243 15.9584 4.49547 15.7685 4.30775C15.593 4.13418 15.3506 4.04064 15.0411 4.02779ZM8.48592 4.02618H2.86767C2.5156 4.02618 2.24571 4.12004 2.05799 4.30775C1.88442 4.48132 1.79121 4.73064 1.77835 5.05572L1.77642 5.13864V8.78525H6.09192C5.80676 8.65583 5.54227 8.48502 5.30699 8.27836C5.08635 8.08602 4.90476 7.85304 4.77214 7.59211C4.64243 7.33574 4.57597 7.05205 4.57832 6.76475C4.57832 6.24854 4.74728 5.82264 5.08521 5.48707C5.42335 5.1515 5.84335 4.98372 6.34521 4.98372C6.64092 4.98372 6.9226 5.04243 7.19024 5.15986C7.46394 5.28173 7.71323 5.45228 7.926 5.66321C8.12519 5.85952 8.29417 6.08429 8.42742 6.33018L8.4856 6.44107L8.48592 4.02618ZM6.4021 5.98336C6.14882 5.98336 5.94696 6.05964 5.79653 6.21221C5.64653 6.36479 5.57153 6.57479 5.57153 6.84222C5.57153 7.06293 5.63957 7.28236 5.77564 7.5005C5.9115 7.71864 6.09921 7.91579 6.33878 8.09193C6.59032 8.27408 6.86767 8.41763 7.16164 8.51782C7.43292 8.61211 7.71835 8.66525 8.01792 8.67725L8.14746 8.67982H8.35864V8.48246C8.36061 8.157 8.30825 7.83348 8.20371 7.52525C8.10666 7.23658 7.96147 6.96641 7.77428 6.72618C7.59107 6.49389 7.38214 6.31197 7.14749 6.18039C6.92006 6.05124 6.663 5.98335 6.40146 5.98336M11.4209 5.98336C11.1615 5.98364 10.9067 6.05155 10.6816 6.18039C10.447 6.31197 10.2381 6.49389 10.0551 6.72618C9.86772 6.96683 9.72142 7.23683 9.62217 7.52525C9.52882 7.79305 9.47626 8.07336 9.46628 8.35679L9.46371 8.48246V8.67982H9.67521C10.0128 8.68227 10.3484 8.62749 10.6678 8.51782C10.9611 8.41827 11.2376 8.27466 11.4877 8.09193C11.7247 7.91579 11.9114 7.71864 12.0477 7.5005C12.184 7.28236 12.252 7.06293 12.2518 6.84222C12.2518 6.57479 12.1779 6.36479 12.03 6.21221C11.8821 6.05964 11.6791 5.98336 11.4209 5.98336Z" fill="white"/>
</svg>
