<svg width="18" height="18" viewBox="0 0 18 18" fill="none" xmlns="http://www.w3.org/2000/svg">
<path d="M11.625 9C11.625 9.34472 11.5571 9.68606 11.4252 10.0045C11.2933 10.323 11.0999 10.6124 10.8562 10.8562C10.6124 11.0999 10.323 11.2933 10.0045 11.4252C9.68606 11.5571 9.34472 11.625 9 11.625C8.65528 11.625 8.31394 11.5571 7.99546 11.4252C7.67698 11.2933 7.3876 11.0999 7.14384 10.8562C6.90009 10.6124 6.70673 10.323 6.57482 10.0045C6.4429 9.68606 6.375 9.34472 6.375 9C6.375 8.30381 6.65156 7.63613 7.14384 7.14384C7.63613 6.65156 8.30381 6.375 9 6.375C9.69619 6.375 10.3639 6.65156 10.8562 7.14384C11.3484 7.63613 11.625 8.30381 11.625 9Z" stroke="white" stroke-linecap="round" stroke-linejoin="round"/>
<path d="M15.5925 6.864C16.1985 7.9065 16.5 8.42775 16.5 9C16.5 9.57225 16.1978 10.0935 15.5925 11.136L14.1503 13.623C13.548 14.661 13.2465 15.18 12.7515 15.465C12.2565 15.75 11.655 15.75 10.4528 15.75H7.54725C6.345 15.75 5.7435 15.75 5.2485 15.465C4.7535 15.18 4.452 14.661 3.84975 13.623L2.4075 11.136C1.80225 10.0935 1.5 9.57225 1.5 9C1.5 8.42775 1.80225 7.9065 2.4075 6.864L3.84975 4.377C4.452 3.339 4.7535 2.82 5.2485 2.535C5.7435 2.25 6.345 2.25 7.54725 2.25H10.4528C11.655 2.25 12.2565 2.25 12.7515 2.535C13.2465 2.82 13.548 3.339 14.1503 4.377L15.5925 6.864Z" stroke="white" stroke-linecap="round" stroke-linejoin="round"/>
</svg>
