<svg width="20" height="20" viewBox="0 0 20 20" fill="none" xmlns="http://www.w3.org/2000/svg">
<path d="M2.9165 4.16671C2.9165 3.61417 3.136 3.08427 3.5267 2.69357C3.9174 2.30287 4.4473 2.08337 4.99984 2.08337H13.3332C13.8857 2.08337 14.4156 2.30287 14.8063 2.69357C15.197 3.08427 15.4165 3.61417 15.4165 4.16671V8.75004C15.4165 8.86055 15.3726 8.96653 15.2945 9.04467C15.2163 9.12281 15.1103 9.16671 14.9998 9.16671C14.8893 9.16671 14.7833 9.12281 14.7052 9.04467C14.6271 8.96653 14.5832 8.86055 14.5832 8.75004V4.16671C14.5832 3.83519 14.4515 3.51724 14.2171 3.28282C13.9826 3.0484 13.6647 2.91671 13.3332 2.91671H4.99984C4.66832 2.91671 4.35037 3.0484 4.11595 3.28282C3.88153 3.51724 3.74984 3.83519 3.74984 4.16671V15.8334C3.74984 16.1649 3.88153 16.4828 4.11595 16.7173C4.35037 16.9517 4.66832 17.0834 4.99984 17.0834H10.8332C10.9437 17.0834 11.0497 17.1273 11.1278 17.2054C11.2059 17.2836 11.2498 17.3895 11.2498 17.5C11.2498 17.6105 11.2059 17.7165 11.1278 17.7947C11.0497 17.8728 10.9437 17.9167 10.8332 17.9167H4.99984C4.4473 17.9167 3.9174 17.6972 3.5267 17.3065C3.136 16.9158 2.9165 16.3859 2.9165 15.8334V4.16671Z" fill="white"/>
<path d="M14.9999 11.25C15.1104 11.25 15.2164 11.2939 15.2945 11.372C15.3726 11.4501 15.4165 11.5561 15.4165 11.6666V12.2225H15.5574C16.349 12.2225 17.0832 12.7925 17.0832 13.6108C17.0832 13.7213 17.0393 13.8273 16.9612 13.9054C16.883 13.9836 16.7771 14.0275 16.6665 14.0275C16.556 14.0275 16.4501 13.9836 16.3719 13.9054C16.2938 13.8273 16.2499 13.7213 16.2499 13.6108C16.2499 13.3525 15.9949 13.0558 15.5574 13.0558H14.3024C13.944 13.0558 13.7499 13.3 13.7499 13.4858C13.7499 13.6633 13.7932 13.7233 13.819 13.7508C13.8574 13.7916 13.9349 13.8391 14.1107 13.8916L16.1249 14.4758C16.344 14.5408 16.5957 14.6408 16.7882 14.8458C16.994 15.065 17.0832 15.3491 17.0832 15.6808C17.0832 16.4291 16.4074 16.9441 15.6974 16.9441H15.4165V17.5C15.4165 17.6105 15.3726 17.7164 15.2945 17.7946C15.2164 17.8727 15.1104 17.9166 14.9999 17.9166C14.8894 17.9166 14.7834 17.8727 14.7052 17.7946C14.6271 17.7164 14.5832 17.6105 14.5832 17.5V16.9441H14.4424C13.6507 16.9441 12.9165 16.3741 12.9165 15.5558C12.9165 15.4453 12.9604 15.3393 13.0386 15.2612C13.1167 15.183 13.2227 15.1391 13.3332 15.1391C13.4437 15.1391 13.5497 15.183 13.6278 15.2612C13.706 15.3393 13.7499 15.4453 13.7499 15.5558C13.7499 15.8141 14.0049 16.1108 14.4424 16.1108H15.6974C16.0557 16.1108 16.2499 15.8666 16.2499 15.6808C16.2499 15.5033 16.2065 15.4433 16.1807 15.4158C16.1424 15.375 16.0649 15.3275 15.889 15.275L13.8749 14.6908C13.6557 14.6258 13.404 14.5258 13.2115 14.3208C13.0057 14.1016 12.9165 13.8175 12.9165 13.4858C12.9165 12.7375 13.5924 12.2225 14.3024 12.2225H14.5832V11.6666C14.5832 11.5561 14.6271 11.4501 14.7052 11.372C14.7834 11.2939 14.8894 11.25 14.9999 11.25ZM5.41654 9.16662C5.41654 9.05612 5.46044 8.95014 5.53858 8.872C5.61672 8.79386 5.7227 8.74996 5.83321 8.74996H6.24988C6.36038 8.74996 6.46636 8.79386 6.5445 8.872C6.62264 8.95014 6.66654 9.05612 6.66654 9.16662C6.66654 9.27713 6.62264 9.38311 6.5445 9.46125C6.46636 9.53939 6.36038 9.58329 6.24988 9.58329H5.83321C5.7227 9.58329 5.61672 9.53939 5.53858 9.46125C5.46044 9.38311 5.41654 9.27713 5.41654 9.16662ZM7.91654 9.16662C7.91654 9.05612 7.96044 8.95014 8.03858 8.872C8.11672 8.79386 8.2227 8.74996 8.33321 8.74996H12.4999C12.6104 8.74996 12.7164 8.79386 12.7945 8.872C12.8726 8.95014 12.9165 9.05612 12.9165 9.16662C12.9165 9.27713 12.8726 9.38311 12.7945 9.46125C12.7164 9.53939 12.6104 9.58329 12.4999 9.58329H8.33321C8.2227 9.58329 8.11672 9.53939 8.03858 9.46125C7.96044 9.38311 7.91654 9.27713 7.91654 9.16662ZM5.41654 11.6666C5.41654 11.5561 5.46044 11.4501 5.53858 11.372C5.61672 11.2939 5.7227 11.25 5.83321 11.25H6.24988C6.36038 11.25 6.46636 11.2939 6.5445 11.372C6.62264 11.4501 6.66654 11.5561 6.66654 11.6666C6.66654 11.7771 6.62264 11.8831 6.5445 11.9613C6.46636 12.0394 6.36038 12.0833 6.24988 12.0833H5.83321C5.7227 12.0833 5.61672 12.0394 5.53858 11.9613C5.46044 11.8831 5.41654 11.7771 5.41654 11.6666ZM7.91654 11.6666C7.91654 11.5561 7.96044 11.4501 8.03858 11.372C8.11672 11.2939 8.2227 11.25 8.33321 11.25H11.2499C11.3604 11.25 11.4664 11.2939 11.5445 11.372C11.6226 11.4501 11.6665 11.5561 11.6665 11.6666C11.6665 11.7771 11.6226 11.8831 11.5445 11.9613C11.4664 12.0394 11.3604 12.0833 11.2499 12.0833H8.33321C8.2227 12.0833 8.11672 12.0394 8.03858 11.9613C7.96044 11.8831 7.91654 11.7771 7.91654 11.6666ZM5.41654 14.1666C5.41654 14.0561 5.46044 13.9501 5.53858 13.872C5.61672 13.7939 5.7227 13.75 5.83321 13.75H6.24988C6.36038 13.75 6.46636 13.7939 6.5445 13.872C6.62264 13.9501 6.66654 14.0561 6.66654 14.1666C6.66654 14.2771 6.62264 14.3831 6.5445 14.4613C6.46636 14.5394 6.36038 14.5833 6.24988 14.5833H5.83321C5.7227 14.5833 5.61672 14.5394 5.53858 14.4613C5.46044 14.3831 5.41654 14.2771 5.41654 14.1666ZM7.91654 14.1666C7.91654 14.0561 7.96044 13.9501 8.03858 13.872C8.11672 13.7939 8.2227 13.75 8.33321 13.75H9.99988C10.1104 13.75 10.2164 13.7939 10.2945 13.872C10.3726 13.9501 10.4165 14.0561 10.4165 14.1666C10.4165 14.2771 10.3726 14.3831 10.2945 14.4613C10.2164 14.5394 10.1104 14.5833 9.99988 14.5833H8.33321C8.2227 14.5833 8.11672 14.5394 8.03858 14.4613C7.96044 14.3831 7.91654 14.2771 7.91654 14.1666ZM5.65321 3.74996H12.6799C12.7849 3.74996 12.8874 3.74996 12.974 3.75662C13.069 3.76496 13.1824 3.78329 13.2949 3.84079C13.4517 3.92068 13.5792 4.04816 13.659 4.20496C13.7174 4.31829 13.7349 4.42996 13.7424 4.52579C13.7499 4.61246 13.7499 4.71496 13.7499 4.81996V6.01329C13.7499 6.11829 13.7499 6.22079 13.7424 6.30746C13.7364 6.4189 13.708 6.52801 13.659 6.62829C13.5792 6.78509 13.4517 6.91256 13.2949 6.99246C13.1946 7.04144 13.0855 7.06978 12.974 7.07579C12.8761 7.08175 12.778 7.08425 12.6799 7.08329H5.65321C5.54821 7.08329 5.44571 7.08329 5.35904 7.07662C5.24754 7.07035 5.13843 7.04173 5.03821 6.99246C4.88141 6.91256 4.75394 6.78509 4.67404 6.62829C4.62506 6.52801 4.59672 6.4189 4.59071 6.30746C4.58475 6.20952 4.58224 6.1114 4.58321 6.01329V4.81996C4.58321 4.71496 4.58321 4.61246 4.58988 4.52579C4.59821 4.43079 4.61654 4.31746 4.67404 4.20496C4.75394 4.04816 4.88141 3.92068 5.03821 3.84079C5.13849 3.79181 5.2476 3.76347 5.35904 3.75746C5.45698 3.75149 5.5551 3.74899 5.65321 3.74996ZM5.42154 4.58829V4.59329C5.41654 4.64246 5.41654 4.70996 5.41654 4.83329V5.99996C5.41521 6.08166 5.41687 6.16338 5.42154 6.24496H5.42654C5.47571 6.24996 5.54321 6.24996 5.66654 6.24996H12.6665C12.7899 6.24996 12.8582 6.24996 12.9065 6.24579H12.9115V6.23996C12.9161 6.16004 12.9178 6.07999 12.9165 5.99996V4.83329C12.9179 4.75159 12.9162 4.66987 12.9115 4.58829H12.9065C12.8266 4.58374 12.7466 4.58207 12.6665 4.58329H5.66654C5.58484 4.58195 5.50312 4.58362 5.42154 4.58829Z" fill="white"/>
</svg>
