<svg width="18" height="18" viewBox="0 0 18 18" fill="none" xmlns="http://www.w3.org/2000/svg">
<path d="M7.2 11.1525L7.731 10.6125L6.1185 9L7.731 7.3875L7.2 6.8475L5.0475 9L7.2 11.1525ZM10.8 11.1525L12.9525 9L10.8 6.8475L10.269 7.3875L11.8815 9L10.269 10.6125L10.8 11.1525ZM4.212 15C3.876 15 3.59 14.882 3.354 14.646C3.118 14.41 3 14.1243 3 13.7887V4.21125C3 3.87625 3.118 3.5905 3.354 3.354C3.59 3.118 3.876 3 4.212 3H7.737C7.6685 2.617 7.76 2.27125 8.0115 1.96275C8.2625 1.65425 8.592 1.5 9 1.5C9.4175 1.5 9.752 1.65425 10.0035 1.96275C10.255 2.27125 10.3418 2.617 10.2638 3H13.7887C14.1237 3 14.4095 3.118 14.646 3.354C14.882 3.59 15 3.876 15 4.212V13.7887C15 14.1237 14.882 14.4095 14.646 14.646C14.41 14.882 14.1243 15 13.7887 15H4.212ZM4.212 14.25H13.7887C13.9038 14.25 14.0095 14.202 14.106 14.106C14.2025 14.01 14.2505 13.904 14.25 13.788V4.212C14.25 4.0965 14.202 3.9905 14.106 3.894C14.01 3.7975 13.904 3.7495 13.788 3.75H4.212C4.0965 3.75 3.9905 3.798 3.894 3.894C3.7975 3.99 3.7495 4.096 3.75 4.212V13.7887C3.75 13.9038 3.798 14.0095 3.894 14.106C3.99 14.2025 4.09575 14.2505 4.21125 14.25M9 3.3315C9.1625 3.3315 9.297 3.2785 9.4035 3.1725C9.51 3.0665 9.563 2.932 9.5625 2.769C9.562 2.606 9.50875 2.47175 9.40275 2.36625C9.29675 2.26075 9.1625 2.2075 9 2.2065C8.8375 2.2055 8.70325 2.25875 8.59725 2.36625C8.49125 2.47375 8.438 2.608 8.4375 2.769C8.437 2.93 8.49025 3.0645 8.59725 3.1725C8.70425 3.2805 8.8385 3.3335 9 3.3315Z" fill="white"/>
</svg>
